<?xml version="1.0" encoding="utf-8"?>
<!-- Generator: Adobe Illustrator 20.0.0, SVG Export Plug-In . SVG Version: 6.00 Build 0)  -->
<svg version="1.1" id="レイヤー_1" xmlns="http://www.w3.org/2000/svg" xmlns:xlink="http://www.w3.org/1999/xlink" x="0px"
	 y="0px" viewBox="0 0 48 48" style="enable-background:new 0 0 48 48;" xml:space="preserve">
<style type="text/css">
	.st0{fill-rule:evenodd;clip-rule:evenodd;fill:#6FC45B;}
</style>
<path class="st0" d="M24,0c13.25,0,24,10.75,24,24c0,13.25-10.75,24-24,24S0,37.25,0,24C0,10.75,10.75,0,24,0z M38.43,23.42
	c1.32,1.33,1.32,3.49,0,4.82l-8.43,8.47c-0.62,0.62-1.47,1-2.41,1h-7.22c-0.86,0-1.64-0.32-2.24-0.84l-8.6-8.64
	c-1.32-1.33-1.32-3.49,0-4.82L21.59,11.3c1.32-1.33,3.48-1.33,4.79,0L38.43,23.42z M26.05,33.42l-1.2,1.21
	c-0.09,0.09-0.21,0.14-0.34,0.14h-1.03c-0.12,0-0.23-0.05-0.32-0.12l-1.23-1.23c-0.19-0.19-0.19-0.5,0-0.69l1.72-1.73
	c0.19-0.19,0.5-0.19,0.68,0l1.72,1.73C26.24,32.92,26.24,33.23,26.05,33.42z M26.05,26.17l-4.81,4.83
	c-0.09,0.09-0.21,0.14-0.34,0.14h-1.03c-0.12,0-0.23-0.04-0.32-0.12l-1.23-1.23c-0.19-0.19-0.19-0.5,0-0.69l5.32-5.35
	c0.19-0.19,0.5-0.19,0.68,0l1.72,1.73C26.24,25.67,26.24,25.98,26.05,26.17z M26.05,18.92l-8.41,8.46
	c-0.09,0.09-0.21,0.14-0.34,0.14h-1.03c-0.12,0-0.23-0.05-0.32-0.12l-1.23-1.23c-0.19-0.19-0.19-0.5,0-0.69l8.93-8.98
	c0.19-0.19,0.5-0.19,0.68,0l1.72,1.73C26.24,18.43,26.24,18.73,26.05,18.92z"/>
</svg>
