<?xml version="1.0" encoding="utf-8"?>
<!-- Generator: Adobe Illustrator 20.0.0, SVG Export Plug-In . SVG Version: 6.00 Build 0)  -->
<svg version="1.1" id="レイヤー_1" xmlns="http://www.w3.org/2000/svg" xmlns:xlink="http://www.w3.org/1999/xlink" x="0px"
	 y="0px" viewBox="0 0 48 46.96" style="enable-background:new 0 0 48 46.96;" xml:space="preserve">
<style type="text/css">
	.st0{fill:#444444;}
</style>
<path class="st0" d="M24,0C10.75,0,0,10.74,0,24c0,10.82,7.16,19.97,17.01,22.96c3.04-2.03,2.52-5.46,2.57-6.46
	c0.02-0.47-0.02-1.71-0.03-3.35c-5.48,1.19-6.64-2.64-6.64-2.64c-0.9-2.28-2.19-2.88-2.19-2.88c-1.79-1.22,0.14-1.2,0.14-1.2
	c1.98,0.14,3.02,2.03,3.02,2.03c1.76,3.01,4.61,2.14,5.74,1.64c0.18-1.27,0.69-2.14,1.25-2.64c-4.38-0.5-8.98-2.19-8.98-9.74
	c0-2.15,0.77-3.91,2.03-5.29c-0.2-0.5-0.88-2.5,0.19-5.22c0,0,1.65-0.53,5.42,2.02c1.57-0.44,3.26-0.66,4.93-0.66
	c1.67,0.01,3.36,0.23,4.93,0.66c3.76-2.55,5.41-2.02,5.41-2.02c1.08,2.71,0.4,4.72,0.2,5.22c1.26,1.38,2.03,3.14,2.03,5.29
	c0,7.57-4.61,9.24-9,9.73c0.71,0.61,1.34,1.81,1.34,3.65c0,2.64-0.02,4.76-0.02,5.41c0,2.18,0.07,4.73,2.1,6.31
	C41.06,43.68,48,34.65,48,24C48,10.74,37.26,0,24,0z"/>
</svg>
