<?xml version="1.0" encoding="utf-8"?>
<!-- Generator: Adobe Illustrator 20.0.0, SVG Export Plug-In . SVG Version: 6.00 Build 0)  -->
<svg version="1.1" id="レイヤー_1" xmlns="http://www.w3.org/2000/svg" xmlns:xlink="http://www.w3.org/1999/xlink" x="0px"
	 y="0px" viewBox="0 0 48 48" style="enable-background:new 0 0 48 48;" xml:space="preserve">
<style type="text/css">
	.st0{fill:#3C5B9B;}
</style>
<path class="st0" d="M48,24c0,13.25-10.75,24-24,24C10.75,48,0,37.25,0,24C0,10.74,10.75,0,24,0C37.26,0,48,10.74,48,24z M19.99,39
	h6.23c0,0,0-8.27,0-14.99h4.2l0.54-5.29h-4.75V15.6c0-1.17,0.78-1.44,1.32-1.44c0.54,0,3.35,0,3.35,0V9.02L26.28,9
	c-5.12,0-6.29,3.83-6.29,6.29v3.43h-2.96v5.29h2.96C19.99,30.81,19.99,39,19.99,39z"/>
</svg>
