<?xml version="1.0" encoding="utf-8"?>
<!-- Generator: Adobe Illustrator 20.0.0, SVG Export Plug-In . SVG Version: 6.00 Build 0)  -->
<svg version="1.1" id="レイヤー_1" xmlns="http://www.w3.org/2000/svg" xmlns:xlink="http://www.w3.org/1999/xlink" x="0px"
	 y="0px" viewBox="0 0 48 48" style="enable-background:new 0 0 48 48;" xml:space="preserve">
<style type="text/css">
	.st0{fill:#2DAAE1;}
</style>
<path class="st0" d="M48,24c0,13.25-10.75,24-24,24S0,37.25,0,24C0,10.74,10.75,0,24,0S48,10.74,48,24z M38.17,12.26
	c-1.19,0.71-2.51,1.22-3.91,1.5c-1.12-1.2-2.72-1.95-4.49-1.95c-3.4,0-6.15,2.76-6.15,6.16c0,0.48,0.05,0.95,0.16,1.4
	c-5.12-0.26-9.65-2.71-12.69-6.43c-0.53,0.91-0.83,1.97-0.83,3.1c0,2.13,1.09,4.02,2.74,5.12c-1.01-0.03-1.96-0.31-2.79-0.77
	c0,0.03,0,0.05,0,0.08c0,2.98,2.12,5.47,4.94,6.04c-0.52,0.14-1.06,0.22-1.62,0.22c-0.4,0-0.78-0.04-1.16-0.11
	c0.78,2.45,3.06,4.22,5.75,4.28c-2.11,1.65-4.76,2.63-7.64,2.63c-0.5,0-0.99-0.03-1.47-0.09c2.72,1.75,5.96,2.76,9.43,2.76
	c11.32,0,17.51-9.38,17.51-17.51c0-0.27,0-0.53-0.02-0.8c1.2-0.87,2.25-1.95,3.07-3.19c-1.1,0.49-2.29,0.82-3.53,0.97
	C36.74,14.9,37.71,13.7,38.17,12.26z"/>
</svg>
