<?xml version="1.0" encoding="utf-8"?>
<!-- Generator: Adobe Illustrator 20.0.0, SVG Export Plug-In . SVG Version: 6.00 Build 0)  -->
<svg version="1.1" id="レイヤー_1" xmlns="http://www.w3.org/2000/svg" xmlns:xlink="http://www.w3.org/1999/xlink" x="0px"
	 y="0px" viewBox="0 0 92 72.62" style="enable-background:new 0 0 92 72.62;" xml:space="preserve">
<g>
	<path d="M45.8,54.47h-2.89v-4.95h-4.95v-2.89l5.98-5.98l7.84,7.84L45.8,54.47z M68.5,17.33c0.46,0.46,0.41,1.24-0.05,1.7
		L50.39,37.09c-0.46,0.46-1.24,0.52-1.7,0.05s-0.41-1.24,0.05-1.7l18.05-18.05C67.26,16.92,68.03,16.87,68.5,17.33z M72.62,47.97
		c0-0.67-0.41-1.24-1.03-1.5c-0.62-0.26-1.29-0.15-1.81,0.36l-3.3,3.3c-0.31,0.31-0.46,0.72-0.46,1.13v6.5
		c0,4.54-3.71,8.25-8.25,8.25H14.85c-4.54,0-8.25-3.71-8.25-8.25V14.85c0-4.54,3.71-8.25,8.25-8.25h42.91c0.77,0,1.55,0.1,2.32,0.31
		c0.57,0.21,1.19,0.05,1.65-0.41l2.53-2.53c0.41-0.41,0.57-0.93,0.46-1.5c-0.1-0.52-0.46-0.98-0.93-1.19C61.89,0.41,59.83,0,57.77,0
		H14.85C6.65,0,0,6.65,0,14.85v42.91c0,8.2,6.65,14.85,14.85,14.85h42.91c8.2,0,14.85-6.65,14.85-14.85V47.97z M67.67,9.9
		L33.01,44.56v14.85h14.85l34.66-34.66L67.67,9.9z M90.57,16.71c1.91-1.91,1.91-5.11,0-7.01l-7.84-7.84c-1.91-1.91-5.11-1.91-7.01,0
		L70.97,6.6l14.85,14.85L90.57,16.71z"/>
</g>
</svg>
