<?xml version="1.0" encoding="utf-8"?>
<!-- Generator: Adobe Illustrator 20.0.0, SVG Export Plug-In . SVG Version: 6.00 Build 0)  -->
<svg version="1.1" id="レイヤー_1" xmlns="http://www.w3.org/2000/svg" xmlns:xlink="http://www.w3.org/1999/xlink" x="0px"
	 y="0px" viewBox="0 0 104 104" style="enable-background:new 0 0 104 104;" xml:space="preserve">
<style type="text/css">
	.st0{fill:#FFFFFF;}
</style>
<g>
	<path class="st0" d="M67.96,75.6C63.4,78.69,57.91,80.5,52,80.5c-15.71,0-28.5-12.79-28.5-28.5S36.29,23.5,52,23.5
		S80.5,36.29,80.5,52c0,5.47-1.55,10.59-4.24,14.93L93.13,83.8C99.94,75.01,104,63.98,104,52c0-28.72-23.28-52-52-52S0,23.28,0,52
		s23.28,52,52,52c12.41,0,23.8-4.36,32.74-11.61L67.96,75.6z"/>
	<path class="st0" d="M35.5,52c0,9.1,7.4,16.5,16.5,16.5c9.1,0,16.5-7.4,16.5-16.5c0-9.1-7.4-16.5-16.5-16.5
		C42.9,35.5,35.5,42.9,35.5,52z"/>
</g>
</svg>
