<?xml version="1.0" encoding="utf-8"?>
<!-- Generator: Adobe Illustrator 20.0.0, SVG Export Plug-In . SVG Version: 6.00 Build 0)  -->
<svg version="1.1" id="レイヤー_1" xmlns="http://www.w3.org/2000/svg" xmlns:xlink="http://www.w3.org/1999/xlink" x="0px"
	 y="0px" viewBox="0 0 100 85.72" style="enable-background:new 0 0 100 85.72;" xml:space="preserve">
<g>
	<path d="M100,35.71C100,15.96,77.62,0,50,0S0,16.01,0,35.71c0,11.33,7.37,21.43,18.86,27.96c-2.62,9.32-6.64,12.67-10.16,16.63
		c-0.84,1-1.79,1.84-1.51,3.24c0,0,0,0,0,0.06c0.28,1.34,1.45,2.23,2.68,2.12c2.18-0.28,4.35-0.67,6.36-1.23
		c9.65-2.46,18.36-7.03,25.67-13.5c2.62,0.28,5.36,0.45,8.09,0.45C77.62,71.43,100,55.47,100,35.71z"/>
</g>
</svg>
