<?xml version="1.0" encoding="utf-8"?>
<!-- Generator: Adobe Illustrator 20.0.0, SVG Export Plug-In . SVG Version: 6.00 Build 0)  -->
<svg version="1.1" id="レイヤー_1" xmlns="http://www.w3.org/2000/svg" xmlns:xlink="http://www.w3.org/1999/xlink" x="0px"
	 y="0px" viewBox="0 0 30 24.38" style="enable-background:new 0 0 30 24.38;" xml:space="preserve">
<style type="text/css">
	.st0{fill:#FFFFFF;}
</style>
<g>
	<path class="st0" d="M29.17,0.45c-1.19,0.71-2.51,1.22-3.91,1.5C24.14,0.75,22.54,0,20.77,0c-3.4,0-6.15,2.76-6.15,6.16
		c0,0.48,0.05,0.95,0.16,1.4C9.66,7.3,5.12,4.85,2.09,1.13c-0.53,0.91-0.83,1.97-0.83,3.1c0,2.13,1.09,4.02,2.74,5.12
		C2.98,9.31,2.04,9.04,1.21,8.57c0,0.03,0,0.05,0,0.08c0,2.98,2.12,5.47,4.94,6.04c-0.52,0.14-1.06,0.22-1.62,0.22
		c-0.4,0-0.78-0.04-1.16-0.11c0.78,2.45,3.06,4.22,5.75,4.28C7,20.72,4.35,21.7,1.47,21.7c-0.5,0-0.99-0.03-1.47-0.09
		c2.72,1.75,5.96,2.76,9.43,2.76c11.32,0,17.51-9.38,17.51-17.51c0-0.27,0-0.53-0.02-0.8c1.2-0.87,2.25-1.95,3.07-3.19
		c-1.1,0.49-2.29,0.82-3.53,0.97C27.74,3.09,28.71,1.89,29.17,0.45z"/>
</g>
</svg>
