<?xml version="1.0" encoding="utf-8"?>
<!-- Generator: Adobe Illustrator 20.0.0, SVG Export Plug-In . SVG Version: 6.00 Build 0)  -->
<svg version="1.1" id="レイヤー_1" xmlns="http://www.w3.org/2000/svg" xmlns:xlink="http://www.w3.org/1999/xlink" x="0px"
	 y="0px" viewBox="0 0 40.01 34.01" style="enable-background:new 0 0 40.01 34.01;" xml:space="preserve">
<style type="text/css">
	.st0{fill:#FFFFFF;}
</style>
<g>
	<path class="st0" d="M23.11,1.23c-1.71-1.64-4.51-1.64-6.21,0L1.28,16.26c-1.71,1.64-1.71,4.34,0,5.98l11.14,10.72
		c0.78,0.65,1.79,1.04,2.9,1.04h9.36c1.22,0,2.32-0.48,3.12-1.24l10.93-10.52c1.71-1.65,1.71-4.34,0-5.98L23.11,1.23z M22.68,28.68
		l-1.56,1.5c-0.11,0.11-0.27,0.18-0.45,0.18h-1.34c-0.16,0-0.3-0.06-0.41-0.15l-1.59-1.53c-0.24-0.23-0.24-0.62,0-0.85l2.23-2.14
		c0.24-0.24,0.64-0.24,0.89,0l2.23,2.14C22.92,28.06,22.92,28.45,22.68,28.68z M22.68,19.69l-6.23,6c-0.11,0.11-0.27,0.18-0.44,0.18
		h-1.34c-0.16,0-0.3-0.06-0.41-0.15l-1.59-1.53c-0.24-0.24-0.24-0.62,0-0.85l6.9-6.64c0.24-0.23,0.64-0.23,0.89,0l2.23,2.15
		C22.92,19.07,22.92,19.45,22.68,19.69z M22.68,10.69l-10.9,10.49c-0.11,0.11-0.27,0.18-0.45,0.18H9.99c-0.16,0-0.3-0.06-0.41-0.15
		l-1.59-1.53c-0.24-0.23-0.24-0.62,0-0.85L19.56,7.69c0.24-0.23,0.64-0.23,0.89,0l2.23,2.15C22.92,10.07,22.92,10.46,22.68,10.69z"
		/>
</g>
</svg>
