<?xml version="1.0" encoding="utf-8"?>
<!-- Generator: Adobe Illustrator 20.0.0, SVG Export Plug-In . SVG Version: 6.00 Build 0)  -->
<svg version="1.1" id="レイヤー_1" xmlns="http://www.w3.org/2000/svg" xmlns:xlink="http://www.w3.org/1999/xlink" x="0px"
	 y="0px" viewBox="0 0 71.03 70.19" style="enable-background:new 0 0 71.03 70.19;" xml:space="preserve">
<path d="M71.03,61.71L52.76,43.43C55.45,39.09,57,33.97,57,28.5C57,12.79,44.21,0,28.5,0S0,12.79,0,28.5S12.79,57,28.5,57
	c5.91,0,11.4-1.81,15.96-4.9l18.09,18.09L71.03,61.71z M28.5,45C19.4,45,12,37.6,12,28.5C12,19.4,19.4,12,28.5,12
	C37.6,12,45,19.4,45,28.5C45,37.6,37.6,45,28.5,45z"/>
</svg>
