<?xml version="1.0" encoding="utf-8"?>
<!-- Generator: Adobe Illustrator 20.0.0, SVG Export Plug-In . SVG Version: 6.00 Build 0)  -->
<svg version="1.1" id="レイヤー_1" xmlns="http://www.w3.org/2000/svg" xmlns:xlink="http://www.w3.org/1999/xlink" x="0px"
	 y="0px" viewBox="0 0 52.99 52.99" style="enable-background:new 0 0 52.99 52.99;" xml:space="preserve">
<style type="text/css">
	.st0{fill:#3569C7;}
</style>
<path class="st0" d="M46.76,38.96c0,0.81-0.32,1.59-0.91,2.18l-4.77,4.74c-0.58,0.55-1.4,0.84-2.21,0.84
	c-0.81,0-1.62-0.29-2.21-0.88l-6.69-6.72c-0.58-0.58-0.91-1.4-0.91-2.21c0-0.97,0.39-1.72,1.07-2.37c1.07,1.07,1.98,2.34,3.64,2.34
	c1.72,0,3.12-1.4,3.12-3.12c0-1.66-1.27-2.57-2.34-3.64c0.65-0.68,1.4-1.04,2.34-1.04c0.81,0,1.62,0.32,2.21,0.91l6.75,6.75
	C46.43,37.34,46.76,38.12,46.76,38.96z M23.93,16.07c0,0.97-0.39,1.72-1.07,2.37c-1.07-1.07-1.98-2.34-3.64-2.34
	c-1.72,0-3.12,1.4-3.12,3.12c0,1.66,1.27,2.57,2.34,3.64c-0.65,0.68-1.4,1.01-2.34,1.01c-0.81,0-1.62-0.29-2.21-0.88l-6.75-6.75
	c-0.58-0.58-0.91-1.36-0.91-2.21c0-0.81,0.32-1.59,0.91-2.18l4.77-4.74c0.58-0.55,1.4-0.88,2.21-0.88c0.81,0,1.62,0.32,2.21,0.91
	l6.69,6.72C23.61,14.45,23.93,15.26,23.93,16.07z M52.99,38.96c0-2.5-0.94-4.84-2.73-6.62l-6.75-6.75
	c-1.75-1.75-4.16-2.73-6.62-2.73c-2.57,0-4.97,1.04-6.75,2.86l-2.86-2.86c1.82-1.79,2.86-4.22,2.86-6.79c0-2.47-0.94-4.84-2.69-6.59
	l-6.69-6.72C18.99,0.97,16.62,0,14.12,0c-2.47,0-4.84,0.94-6.59,2.69L2.76,7.44C1.01,9.16,0,11.56,0,14.03
	c0,2.5,0.94,4.84,2.73,6.62l6.75,6.75c1.75,1.75,4.16,2.73,6.62,2.73c2.57,0,4.97-1.04,6.75-2.86l2.86,2.86
	c-1.82,1.79-2.86,4.22-2.86,6.79c0,2.47,0.94,4.84,2.69,6.59l6.69,6.72c1.75,1.79,4.12,2.76,6.62,2.76c2.47,0,4.84-0.94,6.59-2.69
	l4.77-4.74C51.98,43.83,52.99,41.43,52.99,38.96z"/>
</svg>
