<?xml version="1.0" encoding="utf-8"?>
<!-- Generator: Adobe Illustrator 20.0.0, SVG Export Plug-In . SVG Version: 6.00 Build 0)  -->
<svg version="1.1" id="レイヤー_1" xmlns="http://www.w3.org/2000/svg" xmlns:xlink="http://www.w3.org/1999/xlink" x="0px"
	 y="0px" viewBox="0 0 73.68 55.21" style="enable-background:new 0 0 73.68 55.21;" xml:space="preserve">
<style type="text/css">
	.st0{fill:#000;}
</style>
<g>
	<path class="st0" d="M73.68,32.31c0-1.76-2-2.2-3.41-2.2H27.61c-3.45,0-8.08,2.12-10.35,4.78L4.08,50.43
		c-0.63,0.71-1.22,1.65-1.22,2.59c0,1.76,2,2.2,3.41,2.2h42.67c3.45,0,8.08-2.12,10.35-4.78L72.47,34.9
		C73.1,34.19,73.68,33.25,73.68,32.31z M60.23,18.82c0-4.82-3.96-8.78-8.78-8.78H30.12V8.78c0-4.82-3.96-8.78-8.78-8.78H8.78
		C3.96,0,0,3.96,0,8.78v37.65c0,0.31,0.04,0.67,0.04,0.98l0.2-0.24l13.22-15.53c3.18-3.76,9.25-6.55,14.16-6.55h32.63V18.82z"/>
</g>
</svg>
