<?xml version="1.0" encoding="utf-8"?>
<!-- Generator: Adobe Illustrator 21.1.0, SVG Export Plug-In . SVG Version: 6.00 Build 0)  -->
<svg version="1.1" id="レイヤー_1" xmlns="http://www.w3.org/2000/svg" xmlns:xlink="http://www.w3.org/1999/xlink" x="0px"
	 y="0px" viewBox="0 0 532.25 138.16" style="enable-background:new 0 0 532.25 138.16;" xml:space="preserve">
<g>
	<g>
		<path d="M2.31,64.38L4,64.54c1.82-11.3,7.24-32.34,13.25-42.21l6.35,3.76l5.43-1.28l4.33-3.21c-3.07,6.28-4.7,12.98-4.88,20.1
			l1.78,3.61l3.82,0.25l0.74-2.88l-2.98-1.83c0.01-8.69,2.45-16.86,7.3-24.52L46.7,2.57L46.34,0l-2.88,0.01l-7.26,13.25
			c-2.5,5.33-5.73,8.26-9.69,8.8c-1.44,0.2-2.92,0.07-4.45-0.39c-1.25-2.09-2.01-4.15-2.29-6.16c-0.51-3.73,0.51-7.65,3.07-11.76
			l-0.77-2.83l-2.13-0.09l-1.11,2.93L15.21,4.8l0.98,9.89C8.56,26.37,2.55,49.29,1.15,62.54L2.31,64.38z M40.77,46.49l2.53,2.43
			l3.05-0.42l9.75-8.35l1.19-0.16l0.5,3.63l1.48,1.42l5.9,0.5l10.82-6.11l1.09-2.54l-12.03,4.96l-3.91-0.39l4.84-9.92l-0.25-2.9
			l-2.06-1.8l-1.14-3.31l-4.07-1.53c-7.5,4.93-13.28,11.66-17.36,20.19L40.77,46.49z M53.78,29.9l4.53-3.94l2.08,0.8l0.94,4.11
			l-8.92,8.85L45,44.21l-0.5-0.86L53.78,29.9z M84.43,22.17l1.93-0.26l0.95,1.41L76.03,40.36l0.03,3l2.97,0.67l1.45-4.29
			c4.99-5.51,8.86-11.72,11.59-18.63c2.76,0.24,5.52,0.17,8.3-0.21c0.84-0.12,1.64-0.25,2.4-0.41c0.76-0.15,1.55-0.34,2.38-0.56
			l0.19-1.34l-14.25-0.67l-7.13,0.98l-4.73,2.5l-0.34,4.13l1.86,0.29L84.43,22.17z M98.41,39.69l2.76,1.32l2.12-8.23l4.5-6.94
			l0.35-2.44l-2.43-0.59l-5.59,8.32L98.41,39.69z M113.26,7.89l1.24-2.02l-3.77-3.19l-1.98-0.11l-0.54,2.7l2.16,2.48L113.26,7.89z
			 M110.27,31.59l1.86,1.44l3.62-0.11l9.6-3.94l0.09,7.24l3.41,1.15l0.24-7.59l4.2-7.98l-0.25-1.82l-2.8-0.54
			c-3.71,5.7-8.83,9-15.37,9.89l-0.73-2.52l3.93-7.17l-0.25-1.82l-1.74-0.53C111.46,20.65,109.52,25.42,110.27,31.59z M136.7,36.15
			l13.98-14.48l0.7,1.22l-3.91,7.32l1.61,3.48l3.2-0.44c3.19-3.57,7.12-6.19,11.79-7.86l1.61,5.1l2.7,0.94l0.07-7.18l-1.97-2.74
			l-3.32,0.07l-9.85,5.97l3.38-8.41l-1.04-3.71l-3.55,0.64l-9.15,8.89l2.71-6.69l-0.25-1.82l-2.41-0.44l-9.02,16.42l0.04,3
			L136.7,36.15z M117.28,44.55C117.38,44.78,117.47,44.26,117.28,44.55L117.28,44.55z M112.56,44.96c0.43-0.07,1.95,0.01,1.77-0.33
			C114.06,44.81,112.66,44.5,112.56,44.96z M105.05,42.99c-1.43,0.15-2.36,0.18-3.49,0.43c0.16,0.17,0.22-0.01,0.5-0.01
			c0.24,0.16-0.05,0.23,0.11,0.34c0.37,0.05,0.3,0.11,0.5-0.01c0.12-0.17-0.31-0.22-0.11-0.34c0.36-0.01,0.25,0.28,0.4,0.33
			c0.64-0.13,1.3,0.02,1.85-0.28c-0.08-0.05-0.09-0.17-0.1-0.22C104.93,43.22,105.07,43.22,105.05,42.99z M102.94,43.56
			c-0.01-0.06,0.07-0.06,0.14-0.06C103.09,43.56,103.02,43.56,102.94,43.56z M103.78,43.31C103.53,43.6,103.47,43.15,103.78,43.31
			L103.78,43.31z M104.36,43.3c-0.05,0.23-0.06,0.12-0.28,0.06C104.06,43.25,104.28,43.24,104.36,43.3
			C104.41,43.12,104.72,43.34,104.36,43.3z M156.05,44.39C155.98,44.45,156.06,44.51,156.05,44.39L156.05,44.39z M95.8,46.76
			C95.69,47.05,96.01,46.76,95.8,46.76L95.8,46.76z M110.05,45.08C110.15,45.36,110.09,44.8,110.05,45.08L110.05,45.08z
			 M113.16,44.49c0.14,0,0.16,0.11,0.22-0.01C113.37,44.43,113.23,44.43,113.16,44.49z M146.17,43.91
			C146.03,43.97,146.18,44.03,146.17,43.91L146.17,43.91z M77.19,49.52C77.36,49.74,77.38,49.29,77.19,49.52L77.19,49.52z
			 M101.94,43.64c-0.35,0.07-0.35,0.07-0.58-0.04c-0.04,0.29-0.8-0.04-0.9,0.36C100.95,43.78,101.71,44.16,101.94,43.64z
			 M78.19,49.38C78.26,49.44,78.19,49.38,78.19,49.38L78.19,49.38z M99.21,43.71c0.73,0.04,1.73-0.05,2.13-0.28
			C100.68,43.34,99.98,43.52,99.21,43.71z M90,47.25c-0.05,0.23,0.24,0.22,0.4,0.33C90.31,47.42,90.22,47.25,90,47.25z M79.18,49.24
			C79.18,49.24,79.1,49.19,79.18,49.24L79.18,49.24z M90.66,47.29c-0.02-0.17-0.1-0.22-0.24-0.22
			C90.43,47.18,90.51,47.24,90.66,47.29z M77.76,49.45c0.37,0.05,0.28-0.12,0.13-0.12C77.83,49.39,77.75,49.39,77.76,49.45z
			 M90.42,47.07c-0.08-0.05-0.09-0.17-0.16-0.17C90.19,47.02,90.27,47.08,90.42,47.07z M112.8,43.25
			C112.87,43.24,112.72,43.19,112.8,43.25L112.8,43.25z M60.73,50.8C60.65,50.75,60.73,50.86,60.73,50.8L60.73,50.8z M67.35,49.32
			C67.33,49.21,67.27,49.32,67.35,49.32L67.35,49.32z M67.49,49.32C67.56,49.26,67.41,49.26,67.49,49.32L67.49,49.32z M67.49,49.32
			c-0.07,0-0.07,0-0.14,0C67.42,49.38,67.5,49.37,67.49,49.32z M126.56,42.32c-0.07,0-0.22,0.01-0.21,0.06
			C126.42,42.38,126.57,42.38,126.56,42.32z M144.45,42.14C144.63,42.42,144.56,41.85,144.45,42.14L144.45,42.14z M70.59,48.67
			c-0.22,0.01-0.43,0.01-0.41,0.18C70.4,48.84,70.61,48.84,70.59,48.67z M120.74,42.59c0.07,0,0.22-0.01,0.21-0.06
			C120.89,42.58,120.74,42.53,120.74,42.59z M113.31,42.61C113.39,42.66,113.3,42.55,113.31,42.61L113.31,42.61z M96.51,44.81
			C96.44,44.81,96.59,44.86,96.51,44.81L96.51,44.81z M144.82,42.19C144.75,42.19,144.9,42.24,144.82,42.19L144.82,42.19z
			 M100.15,44.37C100.32,44.65,100.26,44.09,100.15,44.37L100.15,44.37z M62.83,51.54c0.01,0.06,0.01,0.06,0.01,0.06
			C62.98,51.6,62.9,51.54,62.83,51.54z M91.96,45.38C91.77,45.67,92.23,45.26,91.96,45.38L91.96,45.38z M89.26,45.79
			C89.19,45.8,89.34,45.85,89.26,45.79L89.26,45.79z M74.56,48C74.55,47.88,74.49,48,74.56,48L74.56,48z M76.97,47.59
			c-0.07,0-0.14,0-0.14,0.06C76.83,47.65,76.98,47.65,76.97,47.59z M78.69,47.43C78.61,47.44,78.76,47.49,78.69,47.43L78.69,47.43z
			 M74.56,48C74.65,48.16,74.92,47.93,74.56,48L74.56,48z M91.52,47.27c0.21-0.06,0.14-0.06,0.41-0.18
			c-0.04-0.34-0.36,0.01-0.31-0.22c0.22-0.01,0.43-0.01,0.58-0.02c-0.01-0.11-0.09-0.17-0.1-0.28c0.21-0.06,0.55-0.24,0.65-0.02
			c-0.2,0.18-0.5,0.07-0.39,0.35c0.22,0.05,0.2-0.12,0.5-0.07c0.02,0.17-0.35,0.07-0.26,0.23c1.32,0.19,1.9-0.45,3.21-0.31
			c0.56-0.13,1.15-0.09,2.21-0.23c-0.02-0.17-0.16-0.11-0.11-0.34c0.07,0,0.22-0.01,0.29-0.01c0,0-0.01-0.06,0.14-0.06
			c-0.07,0.06-0.07,0.06-0.14,0.06c0.92,0.43,1.74,0.07,2.4-0.46c0.02,0.17,0.17,0.22,0.32,0.28c-0.09-0.17-0.03-0.28,0.11-0.29
			c0.16,0.17-0.05,0.23,0.12,0.4c1.53,0.07,2.6-0.64,4.16-0.28c0.2-0.18,0.76-0.3,1.06-0.2c-0.02-0.17,0.03-0.34,0.17-0.4
			c0.17,0.22,0.12-0.17,0.35-0.07c1.21,0.48,1.53,0.07,2.89-0.02c-0.01-0.11-0.03-0.23,0.11-0.29c0.66,0.1,1.27-0.26,1.73-0.04
			c-0.34,0.18-1.08,0.03-1.27,0.26c0.52,0.1,1.46,0.13,2.14-0.23c-0.24-0.16-0.35,0.07-0.38-0.16c0.43-0.01,0.71-0.13,0.9-0.31
			c-1.01,0.03-1.42,0.21-2.59,0.12c-0.2,0.12-0.53,0.41-0.72,0.02c1.14-0.14,2.49-0.29,3.8-0.27c0.09,0.17,0.1,0.28,0.47,0.33
			c0.05-0.17,0.11-0.34,0.32-0.35c-0.19,0.23,0.54,0.33,0.82,0.21c0.06,0.51,0.98,0.37,1.02,0.09c-0.38-0.16-0.63,0.19-0.88-0.09
			c0.29-0.01,0.77-0.25,0.88,0.09c0.14,0,0.14-0.06,0.2-0.12c-0.22-0.05-0.01-0.11-0.18-0.34c-0.49,0.13-1.2,0.2-1.73,0.04
			c0.64-0.13,1.87-0.11,2.87-0.19c-0.26,0.23-0.5,0.07-0.85,0.14c0.05,0.4,0.29,0.05,0.46,0.27c0.02,0.17-0.43,0.01-0.26,0.23
			c0.08,0.05,0.23,0.11,0.37,0.1c0.12-0.23,0.03-0.34,0.16-0.46c0.22-0.01,0.43-0.07,0.31,0.16c0.51,0.04,1.12-0.31,1.57-0.15
			c-0.12,0.17-0.87-0.03-0.76,0.3c0.45,0.16,0.86-0.08,1.35-0.21c0.74,0.15,1.74,0.07,1.85-0.22c-0.35,0.07-1.87,0.11-2.3,0.12
			c0.61-0.36,2.01-0.11,2.55-0.41c-0.05,0.23,0.3,0.11,0.32,0.28c-0.07,0.06-0.21,0.06-0.12,0.17c1.43-0.09,2.53-0.01,3.66-0.21
			c-0.17-0.22-0.16-0.17-0.12-0.45c-0.94-0.03-2.35,0.29-3.12-0.09c1.64-0.16,2.45-0.01,3.95-0.22c0.1,0.22-0.12,0.17-0.03,0.4
			c0.75,0.26,1.49-0.27,1.96,0.06c-0.2,0.12-0.65,0.02-0.69,0.3c0.24,0.16,0.49-0.13,0.93-0.08c-0.33-0.39,0.26-0.23,0.29-0.63
			c-0.28,0.06-1.05,0.25-1.16-0.03c0.5-0.01,0.85-0.14,1.37,0.02c-0.05,0.17-0.47,0.35-0.16,0.52c0.12-0.17,0.18-0.35,0.45-0.47
			c0.1,0.28,0.6,0.21,0.42,0.56c0.49-0.13,1.53,0.13,1.93-0.16c0.54,0.27,0.94-0.02,1.6,0.07c0.03-0.34-0.64,0.07-0.54-0.27
			c0.56-0.13,1.25,0.19,1.49-0.21c-0.05,0.23,0.44,0.05,0.47,0.33c-0.28,0.12-0.66-0.1-0.93,0.08c0.68,0.27,1.6,0.07,2.1,0.06
			c0.13-0.12-0.18-0.28,0.1-0.4c0.43-0.01,0.96,0.15,1.05-0.25c-0.64,0.13-1.05,0.25-1.45-0.08c0.96,0.15,1.85-0.22,2.76,0.16
			c-0.43,0.01-0.86,0.02-1.17-0.08c-0.12,0.23-0.16,0.46-0.29,0.63c0.64-0.07,1.53,0.13,2.09-0.05c-0.02-0.17-0.16-0.17,0.04-0.29
			c0.16,0.11,0.51,0.04,0.67,0.15c-0.19,0.23-0.37-0.05-0.56,0.13c0.46,0.27,0.72-0.02,1.15-0.03c-0.01-0.11-0.1-0.22,0.04-0.29
			c0.24,0.16,0.8,0.04,1.24,0.14c-0.21,0.06-0.49,0.13-0.54,0.3c0.64-0.13,1.54,0.24,2-0.22c-0.21,0.06-0.53-0.21-0.25-0.33
			c0.18,0.34,0.79-0.02,0.97,0.32c-0.14,0-0.22,0.01-0.36,0.01c0.03,0.28,0.39,0.27,0.69,0.32c0.07-0.06-0.03-0.23,0.2-0.18
			c0.82,0.26,1.17,0.14,1.96,0.12c0.51,0.04,0.66,0.1,1.08-0.03c0.91,0.37,2.14-0.23,2.81-0.07c-0.21,0.06-0.44-0.05-0.34,0.18
			c0.88,0.15,1.61,0.19,2.55,0.16c0.28-0.12-0.1-0.22,0.03-0.34c0.18,0.34,0.78,0.55,1.28,0.42c0.05-0.17-0.31-0.22-0.03-0.28
			c0.64,0.55,1.55,0.3,1.96,0.06c0.1,0.22-0.2,0.18-0.11,0.34c0.09,0.17,0.49-0.13,0.65,0.04c0.59,0.1,1.16,0.03,2.11,0.12
			c-0.01-0.11-0.03-0.28,0.04-0.29c0.15,0.05,0.23,0.11,0.31,0.22c-0.14,0-0.14,0.06-0.35,0.07c0.3,0.11,0.52,0.1,0.8,0.04
			c0.16,0.11,0.18,0.34,0.41,0.39c0.07-0.06-0.02-0.17,0.12-0.17c1.39,0.19,2.78,0.33,4.01,0.35c0.39,0.27,0.97,0.26,1.45,0.08
			c0.02,0.17-0.26,0.29,0.04,0.34c-0.01-0.11,0.41-0.18,0.5-0.01c0.1,0.22-0.43,0.01-0.34,0.18c0.51,0.04,0.67,0.15,1.01-0.03
			c0.77,0.38,2.46,0.05,3.03,0.6c-0.06,0.12-0.43,0.01-0.34,0.18c2.18,0.11,3.44,1.05,5.16,1.57c0,0,0.07-0.06,0.07,0l-0.07,0
			c-0.01,0.51,0.94,0.66,0.8,1.29c-0.18,0.29-0.35,0.69-0.62,0.93c0.31,0.16,0.19,0.39,0.51,0.67c0.29,0.05,0.12-0.23,0.48-0.24
			c0.1,0.22,0.46,0.22,0.67,0.15c0.19-0.23,0.3-0.52,0.34-0.8c-0.14-1.87-1.14-3.04-2.44-4.26c-4.49-2.67-12.45-3.37-18.51-3.95
			c-0.28,0.06-0.29,0.01-0.56,0.13c0.09-0.51-1.5,0.15-1.62-0.3c-2,0.17-4.39-0.51-6.51-0.11c-0.22-0.05-0.39-0.27-0.68-0.27
			c-0.21,0.06-0.12,0.23-0.26,0.29c-1.28-0.48-3.34-0.2-4.8-0.27c-0.22,0.01-0.31,0.41-0.48,0.24c0.06-0.12,0.35-0.12,0.11-0.29
			c-0.29,0.01-0.65,0.02-0.94,0.02c-0.12,0.23,0.53,0.21,0.33,0.33c-0.3-0.11-0.79,0.02-0.61-0.33c-0.26,0.29-1.34-0.36-1.43,0.15
			c-0.22,0.01-0.16-0.17-0.38-0.16c-1.51,0.1-3.54-0.02-5.2,0.02c-0.14,0-0.05,0.23-0.34,0.18c0.06-0.12-0.08-0.11-0.16-0.17
			c-2.04,0.17-4.74,0.07-6.51,0.39c0.08,0.05,0.11,0.24,0.01,0.24c-0.45-0.16-0.65-0.04-0.88-0.09c0.01,0.11-0.14,0.06,0,0
			c-0.01-0.06,0.21-0.06,0.12-0.23c-1.77,0.27-3.54-0.02-5.52,0.37c0.15,0.05,0.16,0.17,0.02,0.17c-1.26-0.31-2.99-0.26-4.3,0.28
			c-0.01-0.11,0.28-0.06,0.19-0.23c-0.44-0.05-0.55,0.24-1.04,0.37c0.11-0.29-0.17-0.22-0.25-0.33c-2,0.22-3.86,0.33-6,0.55
			c0.02,0.17,0.04,0.34-0.25,0.35c-0.03-0.23,0.27-0.18,0.03-0.34c-0.64,0.07-1.37,0.04-2.13,0.34c0.3,0.11,0.56-0.19,0.73,0.09
			c-0.19,0.23-1.09-0.09-1.13,0.26c1.6,0.07,3.65-0.32,5.52-0.37c0.06-0.12,0.35-0.07,0.26-0.29c-0.02-0.17-0.27,0.18-0.29-0.05
			c0.05-0.23,0.5-0.07,0.65-0.02c-0.22,0.01-0.2,0.12-0.19,0.23c0.71-0.08,2.32,0.11,2.48-0.41c-0.35,0.07-1.28,0.2-1.37,0.04
			c0.7-0.19,1.22-0.09,1.78-0.22c0.1,0.22-0.12,0.17-0.11,0.29c1.17,0.08,2.37-0.12,3.59-0.15c0.2-0.12-0.18-0.34,0.03-0.4
			c0.28-0.12,0.1,0.22,0.31,0.16c-0.18-0.28,0.62-0.3,0.64-0.07c-0.2,0.18-0.52-0.1-0.56,0.13c0.54,0.33,1.15-0.03,1.81,0.07
			c0.12-0.17-0.25-0.28-0.03-0.28c0.36-0.01,0.77,0.43,1.23,0.02c0.48,0.39,1.14-0.14,1.89,0.06c-0.01-0.11-0.18-0.34,0.1-0.4
			c0.14,0,0.29,0.05,0.31,0.16c-0.07,0.06-0.12,0.17,0.02,0.17c0.5-0.01,0.86-0.08,1.3,0.02c-0.03-0.23,0.5-0.07,0.55-0.24
			c0.7,0.44,1.94-0.11,2.61,0.1c0.07-0.06,0.05-0.17,0.18-0.29c0.1,0.28,1.12,0.31,1.31,0.08c0.47,0.33,0.79-0.02,1.13-0.2
			c-0.05,0.17,0.09,0.17,0.1,0.28c0.51,0.04,0.71-0.13,0.98-0.25c0.4,0.33,1.91,0.29,2.3-0.06c0.18,0.34,0.52,0.16,0.89,0.2
			c-0.04-0.34,0.51-0.58,0.69-0.25c-0.14,0.06-0.58-0.04-0.56,0.13c0.15,0.05,0.37,0.05,0.45,0.16c0.98-0.31,2.19,0.17,3.16-0.2
			c1.47,0.25,3.63,0.19,5.13,0.04c2.48,0.22,5.23,0.26,7.61,0.26c1.64,0.41,4.13,0.12,6.13,0.58c0.41-0.18,0.51,0.04,0.93-0.08
			c0.18,0.28,0.52,0.1,0.88,0.09c3.38,0.48,7.57,1.11,11.28,1.98c0.24,0.22,1.26,0.31,1.3,0.65c-4.31-1.08-7.9-1.56-11.95-2.19
			c-0.22,0.01-0.27,0.18-0.48,0.18c-0.37-0.1-0.44-0.05-0.82-0.21c-3.93-0.3-6.83-0.33-10.18-0.59c-0.29-0.05-0.2,0.18-0.42,0.12
			c-0.89-0.2-3.27-0.2-4.71-0.1c-0.24-0.16-0.66-0.1-0.94-0.03c-4.57-0.17-7.59-0.03-12.19,0.15c-2.38,0.01-5.08,0.42-7.5,0.08
			c-0.05,0.23-0.48,0.18-0.84,0.19c-0.07,0.06-0.12,0.17-0.27,0.18c-0.61-0.27-1.66-0.01-2.16,0.06c0.01,0.11,0.16,0.17,0.03,0.23
			c-0.22,0.01-0.39-0.27-0.03-0.23c-0.16-0.17-0.58,0.02-0.64,0.13c0.01,0.11-0.06,0.12-0.05,0.23c0.23,0.11,0.28-0.06,0.45,0.16
			c-0.58,0.02-0.84,0.25-1.3,0.03c0.14-0.06,0.27-0.18,0.33-0.29c0.15,0.05,0.1,0.28,0.39,0.22c-0.1-0.22,0.03-0.34,0.18-0.35
			c-0.01-0.11-0.01-0.11-0.09-0.17c-1.49,0.27-3.31,0.09-4.86,0.47c0.08,0.05,0.09,0.17,0.02,0.17c-0.15-0.05-0.09-0.17-0.17-0.22
			c-0.78,0.13-1.64,0.16-2.57,0.29c0.24,0.22-0.18,0.29,0.2,0.45c-0.78,0.13-1.54,0.44-2.09,0.05c0.37,0.1,0.71-0.08,0.98-0.25
			c0.22-0.01,0.1,0.28,0.39,0.22c0.29-0.01,0.48-0.18,0.46-0.41c-0.08-0.05-0.15-0.05-0.16-0.17c-1.99,0.28-4.05,0.56-6.21,0.62
			c0.08,0.11-0.06,0.12-0.2,0.12c-0.12,0.17,0.31,0.22,0.1,0.28c-0.22,0.01-0.24-0.16-0.32-0.28c-2.01,0.11-3.92,0.5-6.21,0.62
			c-0.2,0.12-0.18,0.29-0.47,0.3c0.05-0.23-0.36,0.01-0.31-0.16c-2.57,0.29-4.75,0.81-7.27,0.87c-1.76,0.39-3.18,0.65-5.03,0.81
			c-0.14,0.06-0.2,0.18-0.33,0.24c-1.74-0.07-3.61,0.61-5.28,0.59c-0.62,0.3-1.26,0.32-2.06,0.28c-0.52,0.53-2.15,0.11-2.45,0.69
			c-0.01-0.06-0.01-0.11-0.02-0.17c-3.88,0.84-8.16,1.29-11.72,2.35c-1.65,0.1-4.04,0.67-5.66,1.06c-1.7,0.33-3.54,0.66-5.21,1.16
			c-3.34,0.49-6.67,1.65-10.57,2.32c-1.03,0.43-1.81,0.62-2.95,0.7c0.15,0.05,0.01,0.11-0.05,0.17c-1.07,0.14-2.37,0.74-3.33,0.6
			c2.78-0.98,6.94-1.83,10.37-2.77c2-0.17,3.34-1.11,5.79-1.17c0.25-0.35,1.04-0.37,1.55-0.32c0.2-0.12-0.16-0.17,0.05-0.23
			c3.59-0.78,7.98-1.57,11.77-2.58c2.31,0,4.64-1.14,6.82-0.97c-0.01-0.11-0.16-0.17-0.02-0.17c1.06-0.2,2.1-0.57,3.06-0.42
			c1.03-0.48,2.32-0.57,3.75-0.72c0.9-0.36,2.19-0.46,3.33-0.54c-0.01-0.11-0.03-0.23,0.05-0.23c5.71-0.6,10.51-1.58,16.51-2.19
			c0.11-0.29-0.08-0.11-0.18-0.34c0.35-0.07,0.98-0.25,1.29-0.09c-0.36,0.01-0.77,0.19-1,0.14c0.7,0.44,1.65-0.1,2.52-0.07
			c-0.27-0.45-0.51-0.04-1.17-0.08c-0.08-0.05-0.09-0.17-0.1-0.28c-2.22,0.17-3.71,0.38-5.98,0.78c0.07,0,0.08,0.11,0.09,0.17
			c-0.22,0.01-0.47,0.3-0.64,0.07c0.06-0.12,0.58,0.04,0.48-0.24c-1.21,0.15-2.08,0.11-3.05,0.48c0.24,0.16,0.49-0.13,0.65,0.04
			c-0.42,0.12-1.12,0.31-1.5,0.15c0.29-0.01,0.65-0.02,0.62-0.24c-3.06,0.36-5.68,0.83-8.52,1.25c-0.13,0.12,0.24,0.22,0.03,0.23
			c-0.21,0.06-0.1-0.22-0.38-0.16c-1.28,0.2-2.92,0.36-4.31,0.79c-2.78,0.3-5.11,0.76-7.79,1.34c-5.45,0.94-11.74,2.18-17.43,3.58
			c-6.71,1.31-13.36,3.13-20.1,4.9c-0.36,0.01-0.28,0.12-0.5,0.01c-4.61,1.37-9.36,2.75-13.48,3.99c-5.1,1.5-9.42,3.54-14.89,4.94
			c-0.69-0.38-1.62-0.3-2.23,0.06c-0.56,1.44,1.11,2.13,2.45,1.81c0.03,0.28,0.5-0.01,0.61,0.33c-0.01-0.11,0.05-0.17,0.19-0.23
			c1.02,0.09,2.23-0.11,2.88-0.7c0.58-0.02,0.91-0.25,1.24-0.49c3.55-1.17,6.65-2.5,10.22-3.51c0.47-0.3,0.83-0.31,1.61-0.44
			c0.04-0.29,0.41-0.24,0.75-0.36c0.08,0.05,0.09,0.17,0.16,0.17c0.92-0.82,2.87-0.76,3.61-1.29c1.07-0.08,1.78-0.84,2.87-0.76
			c-0.08-0.05-0.09-0.17,0.05-0.17c0.45,0.16,0.92-0.14,1.41-0.32c0.91-0.25,2.05-0.39,2.99-0.99c0.22,0.05,0.31,0.22,0.6,0.21
			c0.33-0.24,0.63-0.19,0.66-0.53c0.9,0.32,1.28-0.15,2.06-0.28c0.08,0.05,0.09,0.17,0.24,0.16c0.07-0.06-0.03-0.23,0.2-0.18
			c-0.03-0.23,0.37,0.05,0,0c0.01,0.06,0.01,0.11,0.08,0.11c2.67-0.64,5.32-1.5,7.87-1.91c2.87-0.81,6.02-1.69,9.42-2.24
			c0.26-0.29,1.17-0.54,1.68-0.44c-0.07,0-0.14,0-0.14,0.06c1.07-0.14,2.46-0.58,3.23-0.77c-0.37-0.05-0.1-0.28,0.03-0.4
			c0.16,0.11,0.18,0.28,0.4,0.33c0.43-0.01,0.58-0.02,1.29-0.09c-0.01-0.11-0.02-0.17-0.03-0.28c0.01,0.06,0.08,0.05,0.22,0.05
			c-0.01-0.06-0.01-0.06-0.01-0.11c-0.07,0-0.08-0.11-0.02-0.17c-0.03-0.28,0.75-0.36,0.91-0.25c0.03,0.28-0.62,0.3-0.71,0.13
			c-0.06,0.12-0.05,0.17-0.2,0.12c0.01,0.06,0.01,0.11,0.02,0.17c0.07,0,0.16,0.11,0.01,0.11c-0.03,0.34,0.29-0.01,0.5-0.07
			c0.56-0.13,1.32,0.14,1.25-0.43c-0.23-0.11-0.65-0.04-0.75-0.21c0.35-0.07,0.36-0.01,0.86-0.02c0.17,0.22-0.09,0.51,0.2,0.51
			c0.11-0.34,0.79-0.02,0.97-0.37c0.25,0.28,1.46-0.49,1.92-0.22c0.41-0.24,1.68-0.5,2.47-0.52c0.29-0.01,0.4-0.29,0.92-0.19
			c0.41-0.18,0.97-0.37,1.49-0.27c-0.01-0.11-0.03-0.28-0.18-0.34c-0.48,0.24-1.38-0.08-1.41,0.26c-0.15-0.05-0.01-0.11-0.24-0.22
			c0.14-0.06,0.13-0.12,0.27-0.18c0.46,0.27,0.86-0.08,1.24,0.14c-0.03-0.23,0.33-0.24,0.54-0.3c-0.05,0.17-0.11,0.34-0.09,0.51
			c0.48-0.24,0.94-0.02,1.71-0.22c-0.01-0.11-0.24-0.16-0.03-0.23c0.17,0.22,1.03,0.14,1.28-0.15c0.73,0.09,1.28-0.2,1.68-0.44
			c0.61,0.27,2.08-0.17,3.06-0.36c-0.36,0.01-0.18-0.34-0.11-0.34c0.3,0.11,0.11,0.34,0.33,0.39c0.33-0.24,0.44,0.05,1-0.08
			c0.06-0.12,0.27-0.18,0.48-0.24c0.09,0.17,0.22,0.05,0.1,0.22c0.69-0.3,1.24-0.49,2.1-0.62c-0.12,0.17,0.52,0.1,0.89,0.2
			c0.05-0.17,0.11-0.29,0.24-0.4c0.22,0.05,0.2-0.12,0.49-0.13c0.88,0.61,2,0.04,2.84-0.18c-0.01,0.01-0.02,0.02-0.04,0.05
			c0.14,0.23,0.13-0.06,0.06-0.06c0.13-0.03,0.25-0.06,0.36-0.07c0.01,0.06-0.14,0.06-0.13,0.12c0.31,0.16,0.56-0.13,0.93-0.08
			c-0.01-0.11-0.16-0.17-0.03-0.23c0.97,0.26,1.79-0.16,2.65-0.18c0.21-0.06-0.17-0.22,0.11-0.34c0.16,0.17,0.18-0.29,0.5-0.07
			c-0.2,0.12-0.33,0.24-0.03,0.34c0.07,0,0.12-0.17,0.48-0.18c0.05-0.17-0.29,0.01-0.24-0.22c0.37,0.05,0.34-0.18,0.4-0.29
			c-0.07,0-0.22,0.01-0.16-0.17c0.08,0.05,0.16,0.11,0.16,0.17c0.07,0,0.14-0.06,0.21-0.06c-0.01-0.11-0.01-0.11,0.05-0.17
			c0.25,0.28,0.6,0.21,0.57,0.55c0.29,0.05,0.12-0.23,0.33-0.24C91.29,47.11,91.24,47.33,91.52,47.27z M125.36,43.83
			c-0.41,0.18-0.78,0.13-1.21,0.15C124.56,43.79,125.07,43.84,125.36,43.83z M123.79,43.98C123.83,43.7,123.89,44.21,123.79,43.98
			L123.79,43.98z M106.01,43.25c-0.02-0.17,0.27-0.18,0.47-0.3C106.51,43.18,106.22,43.19,106.01,43.25z M106.71,43.06
			C106.98,42.89,106.52,43.3,106.71,43.06L106.71,43.06z M107.15,43.11c-0.07,0-0.08-0.05-0.22-0.05
			C106.98,42.89,107.36,42.99,107.15,43.11z M107.94,43.03c-0.01-0.06,0.07-0.06,0.13-0.12C108.08,43.03,107.93,42.98,107.94,43.03z
			 M108.21,42.85c0.31,0.16,0.41-0.18,0.72-0.02C108.79,42.9,108.24,43.14,108.21,42.85z M109.36,42.82
			c0.07-0.06,0.28-0.12,0.43-0.07C109.74,42.99,109.65,42.82,109.36,42.82z M111.08,42.72c-0.1-0.28,0.5-0.07,0.71-0.13
			C111.67,42.82,111.23,42.78,111.08,42.72z M114.37,42.41c-0.02-0.17,0.28-0.12,0.23,0.11C114.52,42.46,114.44,42.41,114.37,42.41z
			 M115.28,42.22c0.07,0,0.15,0.05,0.16,0.17C115.17,42.5,115.15,42.33,115.28,42.22z M116.09,42.31c-0.06,0.12-0.21,0.06-0.35,0.07
			C115.7,42.09,115.87,42.26,116.09,42.31C116.14,42.14,116.53,42.41,116.09,42.31z M118.24,42.2c-0.01-0.06,0.07-0.06,0.14-0.06
			C118.39,42.19,118.24,42.2,118.24,42.2z M119.68,42.1c-0.01-0.06,0.07-0.06,0.14-0.06C119.82,42.1,119.75,42.1,119.68,42.1z
			 M120.11,42.09c-0.01-0.06,0.07-0.06,0.14-0.06C120.25,42.09,120.18,42.09,120.11,42.09z M120.83,42.07
			c-0.01-0.06,0.47-0.3,0.5-0.01C121.04,42.01,120.99,42.18,120.83,42.07z M121.9,41.99C121.71,42.22,121.51,41.71,121.9,41.99
			L121.9,41.99z M123.19,41.84C123.29,42.12,122.98,41.9,123.19,41.84C123.17,41.67,123.56,41.94,123.19,41.84z M123.7,41.94
			c0.06-0.12,0.2-0.18,0.34-0.18c0.01,0.06,0.02,0.17,0.03,0.23C123.99,41.93,123.85,41.94,123.7,41.94z M127.07,41.68
			C127.19,41.45,127.24,41.96,127.07,41.68L127.07,41.68z M133.41,41.57c-0.01-0.06,0.07,0,0.14-0.06
			C133.55,41.57,133.48,41.57,133.41,41.57z M135.93,41.51c-0.01-0.06,0.07,0,0.14-0.06C136.07,41.5,135.93,41.51,135.93,41.51z
			 M138.18,41.56c-0.03-0.23,0.19-0.23,0.34-0.18C138.46,41.5,138.32,41.56,138.18,41.56z M142.66,41.62c-0.07,0-0.07,0-0.14,0
			c-0.01-0.06-0.01-0.11-0.02-0.17c0.14-0.06,0.15,0.05,0.22,0.05C142.72,41.56,142.65,41.56,142.66,41.62z M171.97,45.34
			c-0.35,0.07-0.52-0.1-0.54-0.33C171.52,45.19,171.87,45.12,171.97,45.34z M169.12,45.65c-0.05,0.17-0.12,0.17-0.21,0.06
			c-0.01-0.06-0.01-0.06-0.01-0.11C168.9,45.65,168.97,45.65,169.12,45.65z M166.47,45.26C166.59,45.03,166.72,45.48,166.47,45.26
			L166.47,45.26z M164.35,45.03c-0.01-0.06-0.01-0.11-0.02-0.17c0.07,0,0.14,0,0.22-0.01c0.01,0.06,0.01,0.11,0.02,0.17
			C164.5,45.03,164.43,45.03,164.35,45.03z M165.36,45c-0.06,0.12-0.14,0-0.22,0.01C165.13,44.9,165.36,44.95,165.36,45z
			 M165.28,44.27c-0.11,0.29-0.44-0.05-0.72,0.02C164.66,43.94,164.99,44.28,165.28,44.27z M164.67,44.68
			c0.01,0.11-0.56,0.13-0.44-0.05C164.52,44.57,164.46,44.69,164.67,44.68z M164.26,44.18c-0.22-0.05-0.43,0.07-0.66-0.1
			C163.73,43.97,164.31,44.01,164.26,44.18z M162.92,43.87c0.01,0.11-0.07,0.06-0.13,0.12C162.78,43.93,162.86,43.93,162.92,43.87z
			 M162.91,44.44c0.01,0.11-0.07,0-0.14,0C162.76,44.39,162.91,44.39,162.91,44.44z M162.04,44.41c-0.07,0-0.07,0-0.14,0
			c-0.01-0.06-0.01-0.11-0.02-0.17c0.07,0,0.07,0,0.14,0C162.03,44.3,162.04,44.35,162.04,44.41z M161.91,43.9
			c-0.37-0.1-0.66-0.1-0.96-0.15C161.08,43.52,161.74,43.68,161.91,43.9z M160.73,44.27c0.07,0,0.14,0,0.07-0.06
			c0.3,0.11,0.27,0.45,0.69,0.38C161.38,44.88,160.77,44.61,160.73,44.27C160.31,44.4,160.77,43.99,160.73,44.27z M159.64,43.62
			C159.83,43.39,159.74,43.84,159.64,43.62L159.64,43.62z M159.41,43.45c0.1,0.22-0.54,0.3-0.5,0.01
			C159.2,43.52,159.2,43.52,159.41,43.45z M158.93,44.32c0.01,0.11-0.14,0.06-0.13,0.12C158.79,44.38,158.86,44.38,158.93,44.32z
			 M154.05,43.99c0.05-0.17,0.5-0.01,0.79-0.08C154.79,44.14,154.21,44.1,154.05,43.99z M155.32,43.67
			c-0.01-0.06,0.07-0.06,0.06-0.12c0.07,0,0.15,0.05,0.16,0.17C155.4,43.79,155.39,43.67,155.32,43.67z M155.81,44.17
			c-0.29,0.01-0.25-0.28,0.04-0.29C155.86,44,155.71,44.01,155.81,44.17z M158.77,43.58c-0.21,0.06-0.23-0.11-0.44-0.05
			C158.31,43.31,158.81,43.24,158.77,43.58z M158.25,43.43c0.09,0.17-0.71,0.13-0.66-0.1C157.81,43.38,158.16,43.26,158.25,43.43z
			 M157.46,43.45c-0.22,0.01-0.22-0.05-0.37-0.1C157.07,43.23,157.57,43.22,157.46,43.45z M157.01,43.29
			c-0.12,0.23-0.21,0.06-0.5,0.07C156.64,43.24,156.78,43.24,157.01,43.29z M156.34,43.82c-0.22,0.01-0.43,0.01-0.52-0.1
			C155.96,43.66,156.38,43.48,156.34,43.82z M155.46,43.05c0.24,0.22,0.15,0.05,0.43-0.01c0.02,0.17,0.3,0.11,0.25,0.28
			c-0.52-0.1-0.71,0.08-1.09-0.03C155.11,43.11,155.56,43.27,155.46,43.05z M155.24,43.62c-0.54,0.3-1.59-0.02-2.09,0
			C153.84,43.43,154.31,43.7,155.24,43.62z M153.44,43.04c-0.12,0.17-0.41,0.24-0.37-0.05C153.22,42.99,153.23,43.1,153.44,43.04z
			 M152.78,43.57C152.7,43.52,152.85,43.57,152.78,43.57L152.78,43.57z M152.89,43.96c0.01,0.11-0.07,0-0.14,0
			C152.74,43.86,152.89,43.91,152.89,43.96z M152.71,43c0.01,0.06-0.14,0.06-0.28,0.06C152.5,43.01,152.64,43,152.71,43z
			 M145.92,43.63c-0.01-0.06-0.01-0.06-0.08-0.05c-0.08-0.11,0.35-0.07,0.29,0.05C146.07,43.63,145.99,43.63,145.92,43.63z
			 M147,43.61c0.2-0.12,0.35-0.07,0.71-0.08C147.66,43.65,147.17,43.77,147,43.61z M148.5,43.4c-0.02-0.17,0.28-0.06,0.43-0.07
			C148.87,43.5,148.71,43.39,148.5,43.4z M149.15,43.44c-0.01-0.06-0.01-0.11-0.01-0.11c0.07,0,0.22-0.01,0.29-0.01
			C149.59,43.48,149.29,43.43,149.15,43.44z M150.14,43.87c-0.04-0.34,0.71-0.08,0.88,0.09C150.51,43.97,150.56,43.74,150.14,43.87z
			 M152.26,43.47c-0.19,0.23-0.51-0.04-0.79,0.02C151.67,43.37,151.96,43.36,152.26,43.47z M151.78,43.08
			c-0.29,0.01-0.58,0.01-0.52-0.16C151.41,42.98,151.76,42.86,151.78,43.08z M151.65,43.83c-0.05,0.23-0.37-0.05-0.58,0.02
			C151.19,43.61,151.43,43.83,151.65,43.83z M149.65,43.42c0.41-0.18,1.07-0.14,1.53,0.07C150.68,43.51,150.09,43.47,149.65,43.42z
			 M150.45,42.83c0.15,0.05,0.16,0.11,0.1,0.22c-0.07,0-0.14,0-0.14,0c-0.01-0.06-0.01-0.11-0.01-0.11
			C150.47,42.95,150.46,42.89,150.45,42.83z M150.02,42.79c-0.4,0.29-1.19,0.37-1.37,0.04c-0.43,0.07-0.71,0.13-1.15,0.09
			C147.89,42.56,149.3,42.86,150.02,42.79z M147.12,42.75c0.22,0.05,0.23,0.11,0.09,0.17c0,0-0.07,0-0.14,0
			C147.14,42.92,147.13,42.86,147.12,42.75z M148.28,43.4c-0.73-0.04-1.08,0.03-1.68-0.13C147.04,43.32,147.96,43.13,148.28,43.4z
			 M145.22,43.2c0.37,0.1,1.07-0.08,1.32,0.19C145.96,43.29,145.55,43.53,145.22,43.2z M146.47,42.77c0.01,0.06,0.01,0.06,0.01,0.11
			c-0.07,0-0.14,0-0.22,0.01c-0.01-0.06-0.01-0.06-0.01-0.11C146.33,42.77,146.4,42.77,146.47,42.77z M146.05,42.89
			c-0.14,0-0.29,0.01-0.36,0.01C145.6,42.68,146.03,42.67,146.05,42.89z M145.59,42.62c0.01,0.11,0.02,0.17,0.03,0.23
			c-0.22,0.01-0.36,0.01-0.58,0.02C145.1,42.75,145.3,42.63,145.59,42.62z M144.6,42.82c0.02,0.17-0.29,0.01-0.24-0.16
			C144.51,42.65,144.46,42.82,144.6,42.82z M144.57,43.22c0.01,0.06-0.14,0.06-0.21,0.06C144.36,43.22,144.5,43.22,144.57,43.22z
			 M143.83,43.69C143.83,43.69,143.91,43.74,143.83,43.69L143.83,43.69z M143.5,42.67c0.15,0.05,0.16,0.11,0.1,0.22
			c-0.07,0-0.14,0-0.14,0c-0.01-0.06-0.01-0.11-0.01-0.11C143.52,42.79,143.51,42.73,143.5,42.67z M143.21,42.63
			c-0.07,0.06,0.03,0.28-0.19,0.23C142.93,42.69,143.06,42.63,143.21,42.63z M143.78,43.18c-0.11,0.34-0.65-0.04-0.92,0.14
			C143.03,42.97,143.5,43.3,143.78,43.18z M142.49,43.27c-0.01-0.06,0.14-0.06,0.21-0.06C142.7,43.26,142.56,43.27,142.49,43.27z
			 M142.77,42.58c0.03,0.28-0.5,0.07-0.62,0.24C142.04,42.54,142.69,42.52,142.77,42.58z M142.41,43.21c0.01,0.11-0.07,0-0.14,0
			C142.25,43.1,142.4,43.16,142.41,43.21z M142.43,43.38c0.01,0.11,0.03,0.23,0.1,0.22c-0.05,0.17-0.22-0.05-0.43,0.07
			C142.08,43.51,142.22,43.45,142.43,43.38z M141.88,43.63C141.92,43.34,141.98,43.91,141.88,43.63L141.88,43.63z M141.83,43.17
			c-0.07,0.06-0.13,0.12-0.28,0.12C141.54,43.18,141.68,43.18,141.83,43.17z M137.69,43.62c0.01,0.06-0.07,0.06-0.06,0.12
			c-0.29-0.05-0.24-0.16-0.51-0.04C137.01,43.36,137.6,43.45,137.69,43.62c0.12-0.23,0.84-0.19,0.94,0.03
			C138.27,43.66,137.98,43.61,137.69,43.62z M138.86,43.14C138.67,43.37,138.28,43.09,138.86,43.14L138.86,43.14z M139.71,43.63
			c-0.01-0.06-0.01-0.11-0.02-0.17c0.08,0.05,0.16,0.11,0.23,0.11C139.93,43.68,139.79,43.68,139.71,43.63z M140.77,43.37
			c-0.07,0-0.09-0.17-0.1-0.28c0.36-0.01,0.44,0.1,0.8,0.09C141.29,43.53,140.88,43.14,140.77,43.37z M141.32,42.56
			c-0.01,0.57-0.84,0.25-0.94-0.03C140.81,42.52,140.81,42.52,141.32,42.56z M140.03,42.65c0.07,0,0.07,0,0.14,0
			c0.01,0.06,0.01,0.11,0.01,0.11c0.14,0,0.08,0.11,0,0C140.12,42.76,139.97,42.77,140.03,42.65z M140.61,43.26
			c-0.59-0.1-1,0.08-1.59-0.02C139.3,43.18,140.21,42.93,140.61,43.26z M139.83,42.77c-0.14,0.06-0.08-0.11-0.23-0.11
			C139.58,42.49,139.89,42.65,139.83,42.77z M139.24,42.67C139.51,42.49,139.05,42.9,139.24,42.67L139.24,42.67z M139.1,42.68
			c-0.2,0.18-0.28,0.06-0.56,0.13c-0.11-0.34-0.12,0.17-0.5,0.01c-0.01-0.11-0.09-0.11-0.1-0.22
			C138.28,42.47,138.79,42.51,139.1,42.68z M137.5,42.6c-0.03,0.4-0.49,0.13-0.84,0.25c0.05-0.17,0.06-0.12-0.04-0.34
			C137.12,42.44,137.16,42.78,137.5,42.6z M136.35,42.69C136.47,42.46,136.6,42.97,136.35,42.69L136.35,42.69z M129.97,43.71
			C129.97,43.71,130.05,43.76,129.97,43.71L129.97,43.71z M131.43,43.22C131.7,43.04,131.24,43.45,131.43,43.22L131.43,43.22z
			 M131.84,43.66c-0.01-0.11,0.13-0.12,0.28-0.12c0.01,0.06,0.01,0.11,0.03,0.23C132.07,43.71,131.99,43.66,131.84,43.66z
			 M133.1,43.29c0,0,0.07-0.06,0.06-0.12c0.07,0,0.07,0,0.14,0C133.39,43.34,133.17,43.28,133.1,43.29z M133.59,43.16
			c0.28-0.06,0.71-0.08,1.09,0.03C134.47,43.31,133.77,43.44,133.59,43.16z M135.08,43.58c0.09,0.17-0.35,0.12-0.22-0.05
			C134.93,43.52,134.95,43.64,135.08,43.58c0.11-0.29-0.31-0.16-0.26-0.39c0.29-0.01,0.35-0.12,0.65-0.02
			C135.35,43.34,135.21,43.46,135.08,43.58z M135.72,43.5c0.1,0.22-0.2,0.12-0.34,0.18C135.37,43.57,135.51,43.51,135.72,43.5z
			 M135.49,42.71c0.11,0.34-0.48,0.18-0.51-0.04C135.26,42.6,135.28,42.77,135.49,42.71z M133.31,42.6
			c0.32,0.28,1.34-0.26,1.62,0.24c-0.59-0.1-1.58,0.1-2.16,0.06C132.89,42.67,133.28,42.94,133.31,42.6z M132.97,43.4
			c-0.08-0.05-0.16-0.11-0.3-0.11C132.65,43.13,133.02,43.18,132.97,43.4z M132.56,43.59c0.01,0.06,0.01,0.11,0.02,0.17
			c0,0-0.07,0-0.14,0c-0.01-0.06-0.01-0.11-0.02-0.17C132.48,43.59,132.56,43.59,132.56,43.59z M131.39,42.82
			c0.22-0.01,0.35-0.07,0.33-0.24c0.22,0.05,0.25,0.28,0.67,0.21c0.04,0.34-0.48,0.18-0.58,0.01c-0.12,0.23-0.64,0.13-0.92,0.14
			c-0.02-0.17-0.24-0.16-0.26-0.39C131.06,42.49,131.16,42.71,131.39,42.82z M130.57,42.61c-0.05,0.23,0.16,0.17,0.11,0.34
			c-0.41,0.18-0.61-0.33-0.81-0.15C129.7,42.58,130.28,42.62,130.57,42.61z M130.1,42.91c-0.07,0.06-0.07,0.06-0.06,0.12
			c-0.07,0-0.14,0-0.22,0.01c-0.01-0.06-0.01-0.11-0.02-0.17C129.88,42.92,129.95,42.91,130.1,42.91z M131.14,43.22
			c-0.26,0.23-0.04,0.29,0.12,0.45c-0.22-0.05-0.49,0.13-0.73-0.04c-0.01-0.06,0.22-0.01,0.2-0.12c-0.04-0.34-0.98,0.25-0.97-0.26
			C130.42,43.24,130.65,43.29,131.14,43.22z M129.26,43.22c0.08,0.11,0.43-0.01,0.38,0.16C129.36,43.44,129.21,43.39,129.26,43.22z
			 M129.71,42.69c0.01,0.11,0.03,0.23,0.03,0.28c-0.43,0.01-0.37-0.05-0.72,0.02c-0.01-0.06-0.01-0.11-0.02-0.17
			C129.28,42.7,129.44,42.81,129.71,42.69z M128.8,42.94C129.07,42.77,128.61,43.18,128.8,42.94L128.8,42.94z M127.86,42.91
			c-0.05,0.17-0.36,0.01-0.36,0.01C127.48,42.75,127.79,42.91,127.86,42.91z M127.54,43.32c0.01,0.06-0.14,0.06-0.28,0.06
			C127.25,43.33,127.4,43.32,127.54,43.32z M127.14,43.56C127.41,43.38,126.95,43.79,127.14,43.56L127.14,43.56z M119.52,43.87
			c-0.03-0.28,0.69-0.3,0.72-0.02C119.96,43.97,119.88,43.86,119.52,43.87z M126.72,43.05c-0.22,0.01-0.56,0.13-0.52-0.1
			C126.41,42.89,126.69,42.77,126.72,43.05z M125.39,42.81c0.29,0.05,0.46,0.22,0.73,0.09c-0.05,0.23-0.48,0.18-0.77,0.19
			C125.27,42.98,125.4,42.92,125.39,42.81z M123.69,43.13c0.32-0.35,0.92-0.19,1.43-0.15c0.1,0.23-0.35,0.12-0.48,0.18
			c-0.67-0.21-1.83,0.39-2.31,0c-0.69,0.25-0.78,0.13-1.56,0.21C121.45,43.08,122.78,42.76,123.69,43.13z M120.67,43.84
			c-0.07,0-0.14,0-0.22,0.01c-0.01-0.06-0.01-0.11-0.03-0.23c0.14,0,0.16,0.11,0.3,0.11C120.73,43.78,120.66,43.78,120.67,43.84z
			 M120.6,43.27c-0.27,0.18-1.05,0.31-1.3-0.02C119.65,43.13,120.03,43.34,120.6,43.27z M119.03,43.43
			C119.15,43.2,119.28,43.65,119.03,43.43L119.03,43.43z M119.01,43.2C119.13,42.97,119.26,43.48,119.01,43.2L119.01,43.2z
			 M118.89,43.43c0.01,0.06-0.14,0.06-0.21,0.06C118.67,43.44,118.82,43.43,118.89,43.43z M118.87,43.88
			c-0.03-0.23,0.42-0.12,0.44,0.05C119.1,43.99,119.08,43.82,118.87,43.88c-0.27,0.18-0.93,0.08-1.29,0.09
			C117.68,43.63,118.57,43.78,118.87,43.88z M116.82,43.65c-0.01-0.06-0.01-0.06-0.01-0.11c0.07,0,0.14,0,0.14,0
			c0.01,0.06,0.01,0.06,0.01,0.11C116.96,43.65,116.89,43.65,116.82,43.65z M117.07,43.31c-0.05,0.17-0.12,0.17-0.28,0.06
			c0,0-0.01-0.06-0.01-0.11C116.85,43.31,116.93,43.31,117.07,43.31z M116.64,43.37c-0.06,0.12-0.13,0.12-0.12,0.23
			c0.14,0,0.08,0.11,0,0c-0.65,0.02-1.26,0.32-1.61-0.19C115.58,43.52,115.79,43.51,116.64,43.37z M114.58,43.6
			C114.62,43.37,114.82,43.88,114.58,43.6L114.58,43.6z M114.48,43.37c-0.12,0.23-0.01,0.51-0.39,0.41
			C113.86,43.62,114.12,43.38,114.48,43.37z M113.74,43.9c-0.14,0-0.23-0.11-0.37-0.1C113.35,43.63,113.79,43.68,113.74,43.9z
			 M112.88,43.93c-0.15-0.05-0.23-0.11-0.24-0.22C112.79,43.76,112.87,43.81,112.88,43.93z M112.6,43.99c-0.28,0.06-0.5,0.07-1,0.08
			C111.65,43.9,112.55,43.59,112.6,43.99z M111.34,43.68c0.03,0.28-0.24,0.46-0.54,0.36C110.77,43.75,111.2,43.8,111.34,43.68z
			 M97.86,45.85c-0.01-0.06,0.14-0.06,0.14,0C97.95,45.97,97.93,45.85,97.86,45.85z M98.48,46.18c-0.01-0.11,0.21-0.06,0.27-0.18
			C98.97,46.05,98.63,46.23,98.48,46.18z M101.45,45.7c0.14,0,0.15,0.05,0.29,0.05C101.77,45.92,101.33,45.88,101.45,45.7z
			 M102.24,45.63C102.55,45.79,101.83,45.81,102.24,45.63L102.24,45.63z M103.54,45.59c-0.09-0.17,0.06-0.12,0.2-0.18
			C103.75,45.53,103.68,45.59,103.54,45.59z M103.97,45.64c-0.08-0.05-0.16-0.11-0.1-0.22c0.07,0,0.14,0,0.22-0.01
			c0.01,0.11,0.02,0.17,0.03,0.23C104.05,45.64,104.05,45.64,103.97,45.64z M105.26,45.49c-0.38-0.16,0.28-0.12,0.18-0.29
			c0.07,0,0.15,0.05,0.22,0.05c0.01,0.06,0.01,0.11,0.01,0.11C105.54,45.43,105.24,45.32,105.26,45.49z M105.8,45.19
			c0.22-0.01,0.36-0.01,0.38,0.16C105.97,45.42,105.76,45.42,105.8,45.19z M107.61,45.2c0.12-0.17,0.33-0.24,0.64-0.13
			C108.26,45.24,107.9,45.19,107.61,45.2z M108.89,45.05C109.08,44.77,109.06,45.28,108.89,45.05L108.89,45.05z M109.59,44.87
			c-0.06,0.12-0.2,0.18-0.34,0.18C109.24,44.93,109.38,44.87,109.59,44.87z M109.21,44.71c-0.3-0.11-0.29,0.01-0.65,0.02
			C108.47,44.55,109.25,44.42,109.21,44.71z M105.78,44.97c0.71-0.13,1.85-0.28,2.57-0.24C107.58,44.92,106.79,45,105.78,44.97z
			 M105.91,44.28c0.21-0.06,0.16,0.17,0.31,0.22c0.39-0.41,1.42-0.21,1.91-0.39c0.02,0.17,0.03,0.23-0.03,0.34
			c-0.82-0.21-1.28,0.2-1.87,0.05c-0.14,0.06-0.76,0.3-0.73-0.04C105.72,44.51,105.78,44.4,105.91,44.28z M105.56,44.97
			C105.48,44.92,105.63,44.97,105.56,44.97C105.44,45.2,105.05,44.93,105.56,44.97z M105.15,44.58
			C105.19,44.3,105.26,44.87,105.15,44.58L105.15,44.58z M105.15,45.15c-0.07,0-0.14,0-0.22,0.01c-0.01-0.06-0.01-0.06-0.08-0.11
			C104.76,44.93,105.2,44.98,105.15,45.15z M104.74,44.71l-0.29-0.05C104.43,44.55,104.94,44.59,104.74,44.71z M104.9,45.56
			c-0.14,0.06-0.44-0.1-0.43,0.07c-0.14,0-0.09-0.17-0.1-0.28C104.59,45.34,104.88,45.33,104.9,45.56z M104.01,44.67
			c0.01,0.11-0.14,0.06-0.21,0.06C103.79,44.68,103.94,44.67,104.01,44.67z M102.92,44.64C103.11,44.35,103.02,44.87,102.92,44.64
			L102.92,44.64z M102.83,45.1c0.66,0.1,1.27-0.26,1.53,0.13c-0.44-0.1-0.85,0.14-1.3,0.03c-0.05,0.23,0.3,0.11,0.39,0.27
			c-0.14,0.06-0.35,0.12-0.56,0.13C103.23,45.43,102.71,45.33,102.83,45.1z M100.92,45.49c0.47-0.35,1.13-0.2,1.78-0.22
			C102.3,45.51,101.5,45.47,100.92,45.49z M102.66,44.88c-0.05,0.23-0.21,0.06-0.36,0.01C102.35,44.66,102.52,44.94,102.66,44.88z
			 M101.48,44.68c0.15,0.05,0.58,0.04,0.65-0.02c0.2,0.45-0.75,0.42-1.53,0.49C100.85,44.81,101.38,45.08,101.48,44.68z
			 M100.85,45.43c-0.06,0.12-0.21,0.06-0.28,0.06C100.56,45.44,100.7,45.44,100.85,45.43z M100.13,44.83
			c-0.14,0.06,0.04,0.34-0.18,0.29c0.13-0.12-0.08-0.05-0.03-0.28C99.98,44.83,100.06,44.83,100.13,44.83z M99.9,46.03
			c-0.14,0-0.29,0.01-0.5,0.01C99.37,45.81,99.92,45.57,99.9,46.03z M99.36,45.08c0.1,0.28-0.48,0.24-0.5,0.01
			C99.05,44.91,99.15,45.14,99.36,45.08z M99.14,45.65c-0.2,0.18-0.28,0.06-0.57,0.07c-0.06,0.12-0.2,0.12-0.42,0.12
			c0.06-0.12,0.2-0.12,0.42-0.12C98.69,45.55,98.78,45.66,99.14,45.65z M98.74,45.32c-0.05,0.23-0.85,0.14-0.92,0.14
			C98.01,45.28,98.51,45.21,98.74,45.32z M97.67,45.46c0.01,0.06-0.07,0.06-0.14,0.06C97.53,45.46,97.6,45.46,97.67,45.46z
			 M97.72,45.86c0.09,0.17-0.28,0.06-0.43,0.07C97.27,45.76,97.64,45.8,97.72,45.86z M93.6,46.48c-0.01-0.11,0.12-0.17,0.27-0.18
			C94.04,46.52,93.74,46.42,93.6,46.48z M94.09,46.35C94.36,46.23,93.91,46.64,94.09,46.35L94.09,46.35z M94.48,46.57
			c-0.01-0.06-0.01-0.11-0.03-0.23c0.08,0.11,0.37,0.05,0.52,0.16C94.86,46.79,94.67,46.39,94.48,46.57z M95.48,46.54
			C95.52,46.26,95.59,46.82,95.48,46.54L95.48,46.54z M94.73,46.28c0.34-0.18,0.96-0.42,1.29-0.09
			C95.6,46.31,95.15,46.15,94.73,46.28z M95.99,46.53c-0.09-0.17,0.13-0.12,0.19-0.23C96.4,46.35,96.21,46.58,95.99,46.53z
			 M96.15,46.07C96.19,45.78,96.25,46.29,96.15,46.07L96.15,46.07z M96.37,46.06c0.05-0.17,0.56-0.19,0.65,0.04
			C96.73,46.11,96.65,46,96.37,46.06z M94.12,45.95c0.05-0.23-0.44-0.05-0.4-0.33c0.3,0.11,0.29-0.01,0.72-0.02
			c-0.05,0.17,0.03,0.28,0.18,0.28c0.21-0.06,0.11-0.34,0.31-0.41c0.22,0.05,0.64-0.13,0.59,0.1c0.06-0.12,0.51,0.04,0.41-0.18
			c-0.07,0-0.01-0.11,0,0c0.37,0.05,0.43-0.01,0.78-0.13c-0.18,0.29,0.17,0.22,0.38,0.16c-0.1,0.4-0.72,0.02-0.93,0.08
			c-0.12,0.17-0.39,0.35-0.62,0.24c-0.01-0.06-0.01-0.11-0.02-0.17C95.34,45.92,94.77,45.99,94.12,45.95
			c-0.05,0.23-0.42,0.12-0.57,0.07C93.52,45.8,93.9,45.96,94.12,45.95z M93.38,45.86C93.38,45.8,93.46,45.91,93.38,45.86
			L93.38,45.86z M91.59,45.96c0.22-0.01,0.04,0.34-0.11,0.29C91.39,46.08,91.6,46.07,91.59,45.96z M97.44,44.05
			c0.01,0.11-0.12,0.17-0.35,0.12C97.15,44.05,97.22,44.05,97.44,44.05z M96.8,44.18c-0.05,0.17-0.5,0.07-0.58,0.02
			C96.43,44.07,96.57,44.07,96.8,44.18z M96.08,44.19c-0.06,0.12-0.2,0.18-0.34,0.18C95.73,44.26,95.87,44.2,96.08,44.19z
			 M94.67,44.46c0.2-0.12,0.56-0.13,0.92-0.19C95.47,44.49,94.82,44.51,94.67,44.46c0.01,0.06-0.21,0.06-0.2,0.12
			C94.25,44.58,94.45,44.41,94.67,44.46z M94.09,44.47c0.02,0.17-0.2,0.18-0.28,0.06C93.8,44.42,94.02,44.48,94.09,44.47z
			 M91.89,44.82c-0.01-0.11,0.49-0.13,0.37,0.05C92.12,44.87,92.04,44.81,91.89,44.82c-0.05,0.23-0.28,0.06-0.5,0.07
			C91.38,44.72,91.75,44.82,91.89,44.82z M90.83,44.96C91.01,44.67,90.92,45.18,90.83,44.96L90.83,44.96z M88.91,45.29
			c-0.37-0.05-0.42,0.12-0.79,0.08C88.11,45.2,88.88,45.01,88.91,45.29z M88.06,45.43c-0.22,0.01-0.64,0.13-0.52-0.16
			C87.7,45.44,88.02,45.09,88.06,45.43z M87.2,45.51C87.2,45.51,87.28,45.56,87.2,45.51L87.2,45.51z M86.43,45.7
			c-0.22-0.05-0.14,0-0.5,0.01C85.76,45.49,86.55,45.47,86.43,45.7z M85.78,45.66c-0.06,0.12-0.13,0.12-0.35,0.12
			C85.33,45.55,85.63,45.66,85.78,45.66z M85.13,45.67c0.29,0.05-0.11,0.29-0.2,0.12C84.91,45.68,85.14,45.79,85.13,45.67z
			 M83.79,45.94c-0.01-0.11,0.43-0.07,0.3,0.11C83.94,46.05,83.93,45.93,83.79,45.94C83.54,46.28,83.26,45.78,83.79,45.94z
			 M83.17,46.24C83.24,46.23,83.18,46.35,83.17,46.24c-0.14,0-0.22,0.01-0.29-0.05C82.79,46.08,83.22,46.06,83.17,46.24z
			 M82.16,46.21C82.28,45.98,82.41,46.48,82.16,46.21L82.16,46.21z M81.58,46.22c0.14,0,0.15,0.05,0.29,0.05
			C81.89,46.44,81.46,46.4,81.58,46.22z M79.46,46.62c-0.08-0.11,0.35-0.12,0.29,0.05c-0.07,0-0.14,0-0.22,0.01
			C79.54,46.67,79.53,46.62,79.46,46.62c0.02,0.17-0.2,0.18-0.42,0.12C79.02,46.57,79.38,46.56,79.46,46.62z M77.48,47.01
			c-0.01-0.06,0.13-0.12,0.12-0.23c0.23,0.11,0.29-0.01,0.65-0.02C78.21,47.05,77.76,46.95,77.48,47.01
			c0.01,0.11-0.14,0.06-0.13,0.12c-0.07,0-0.14,0-0.08-0.05c-0.01-0.06-0.01-0.06-0.01-0.11C77.33,46.96,77.34,47.01,77.48,47.01z
			 M77.19,47.02c-0.07,0.06-0.14,0.06-0.21,0.06C76.98,47.02,77.12,47.02,77.19,47.02z M76.43,47.27
			C76.35,47.21,76.5,47.26,76.43,47.27L76.43,47.27z M76.34,47.15c-0.06,0.12-0.28,0.12-0.41,0.18
			C75.76,47.11,76.13,47.22,76.34,47.15z M75.22,47.41c0.01,0.06-0.14,0.06-0.14,0.06C75.07,47.41,75.14,47.41,75.22,47.41z
			 M73.52,47.74c0.01,0.06-0.14,0.06-0.14,0.06C73.38,47.74,73.45,47.74,73.52,47.74z M73.16,47.75
			C73.27,47.46,73.34,48.03,73.16,47.75L73.16,47.75z M71.81,47.95c-0.06,0.12-0.12,0.17-0.27,0.18
			C71.52,47.96,71.67,48.01,71.81,47.95z M70.82,48.15C71.09,47.97,70.63,48.38,70.82,48.15L70.82,48.15z M70.46,48.16
			c0.01,0.06,0.01,0.06,0.01,0.11c-0.07,0-0.14,0-0.22,0.01c-0.01-0.06-0.01-0.06-0.01-0.11C70.32,48.16,70.39,48.16,70.46,48.16z
			 M70.18,48.22c0.01,0.06,0.01,0.11,0.01,0.11c-0.07,0-0.07,0-0.14,0c0,0-0.01-0.06-0.01-0.11C70.11,48.23,70.11,48.23,70.18,48.22
			z M69.2,48.48C69.25,48.25,69.44,48.7,69.2,48.48L69.2,48.48z M67.62,48.58c0.22,0.05,0.23,0.11,0.09,0.17c0,0-0.07,0-0.14,0
			c0,0-0.01-0.06-0.01-0.11C67.63,48.63,67.63,48.63,67.62,48.58z M66.86,48.88c-0.2,0.12-0.84,0.25-0.99,0.2
			C66.21,48.9,66.5,48.89,66.86,48.88z M65.51,49.09c0.01,0.11-0.12,0.17-0.34,0.18C65.23,49.15,65.3,49.09,65.51,49.09z
			 M64.11,49.41c0.01,0.06-0.14,0.06-0.21,0.06C63.89,49.41,64.03,49.41,64.11,49.41z M63.68,49.47c-0.06,0.12-0.12,0.17-0.27,0.18
			C63.47,49.54,63.54,49.48,63.68,49.47z M62.82,49.55c0.07,0,0.07,0,0.14,0c0.09,0.17-0.12,0.17-0.2,0.18
			C62.76,49.67,62.84,49.67,62.82,49.55z M62.57,49.84c-0.29-0.05-0.56,0.13-0.65,0.02C61.98,49.8,62.46,49.51,62.57,49.84z
			 M27.32,59.97c-0.01-0.06-0.01-0.06-0.08-0.05c-0.08-0.11,0.35-0.12,0.29,0.05C27.47,59.97,27.4,59.97,27.32,59.97z M27.35,59.58
			c-0.22-0.05,0.03-0.4,0.19-0.23C27.48,59.46,27.34,59.46,27.35,59.58z M27.81,59.79c0,0-0.07,0-0.14,0
			c-0.01-0.06-0.01-0.11-0.02-0.17c0.08,0.05,0.07,0,0.07-0.06c0.07,0,0.14,0,0.22-0.01c0.01,0.06,0.01,0.11,0.01,0.11
			C27.79,59.68,27.8,59.73,27.81,59.79z M27.74,59.17c0.29-0.01,0.31,0.16,0.4,0.33C27.92,59.5,27.76,59.39,27.74,59.17z
			 M28.09,58.48c-0.05,0.23-0.33,0.29-0.69,0.3C27.45,58.55,27.81,58.54,28.09,58.48C28.35,58.19,28.41,58.7,28.09,58.48z
			 M29.15,58.9C29.2,58.67,29.4,59.18,29.15,58.9L29.15,58.9z M29.92,58.03c-0.2,0.12-0.49,0.13-0.7,0.19
			C29.27,58.05,29.55,57.98,29.92,58.03c-0.02-0.17,0.27-0.18,0.48-0.24C30.27,57.91,30.15,58.2,29.92,58.03z M30.91,58.52
			c-0.01-0.06,0.07-0.06,0.14-0.06C31.06,58.51,30.98,58.51,30.91,58.52z M31.02,58.23c0.06-0.12,0.34-0.18,0.5-0.07
			C31.54,58.33,31.17,58.23,31.02,58.23z M32.23,58.03C32.27,57.74,32.33,58.31,32.23,58.03L32.23,58.03z M31.18,57.71
			c-0.14,0.06-0.2,0.18-0.41,0.18C30.68,57.73,30.89,57.72,31.18,57.71c-0.19-0.39,0.64-0.07,0.54-0.36
			c0.24,0.16,0.49-0.13,0.58-0.02C32.11,57.58,31.53,57.59,31.18,57.71z M32.39,58.19C32.39,58.19,32.47,58.25,32.39,58.19
			L32.39,58.19z M33.23,57.94C33.04,58.18,32.92,57.73,33.23,57.94L33.23,57.94z M32.63,57.11c0.28-0.12,0.44,0.05,0.79-0.08
			C33.55,57.54,32.8,57.33,32.63,57.11z M33.5,57.77c-0.01-0.06,0.14-0.06,0.14,0C33.66,57.88,33.57,57.76,33.5,57.77z M33.49,57.08
			c0.19-0.23,0.54-0.36,1.11-0.37C34.36,57.06,33.93,57.13,33.49,57.08z M33.84,57.59c-0.01-0.06,0.07-0.06,0.13-0.12
			C33.98,57.58,33.91,57.53,33.84,57.59z M34.68,57.34C34.64,57.62,34.25,57.35,34.68,57.34c0.13-0.12,0.19-0.23,0.49-0.13
			C35.11,57.33,34.89,57.33,34.68,57.34z M35.55,58.05C35.55,58,35.55,58,35.54,57.94c0,0,0.07,0,0.14,0c-0.01-0.11,0.14-0.06,0,0
			C35.69,57.99,35.7,58.11,35.55,58.05z M37.83,56.52c-0.2,0.18-0.56,0.13-0.98,0.31C36.97,56.54,37.48,56.58,37.83,56.52z
			 M37.41,57.27c0.29-0.01,0.37,0.1,0.52,0.1C37.88,57.54,37.36,57.44,37.41,57.27z M40.19,56.28c0.01,0.11-0.14,0.06-0.2,0.12
			C39.98,56.35,40.13,56.34,40.19,56.28z M38.28,56.62c0.22-0.01,0.22,0.05,0.37,0.05C38.74,56.83,38.16,56.85,38.28,56.62z
			 M38.93,56.6c0,0,0.2-0.12,0.35-0.07C39.37,56.65,38.81,56.83,38.93,56.6z M40.18,56.8c-0.07,0-0.14,0-0.22,0.01
			c-0.01-0.06-0.01-0.11-0.02-0.17c0.08,0.05,0.07,0,0.07-0.06c0.07,0,0.14,0,0.22-0.01c0.01,0.06,0.01,0.11,0.02,0.17
			C40.16,56.68,40.17,56.74,40.18,56.8z M40.65,56.5c0.22-0.01,0.13-0.12,0.36-0.01C41.04,56.77,40.61,56.79,40.65,56.5z
			 M50.7,53.45C50.74,53.17,50.81,53.73,50.7,53.45L50.7,53.45z M49.92,53.59c0.09,0.17-0.54,0.36-0.5,0.07
			C49.65,53.71,49.63,53.54,49.92,53.59z M49.82,53.93c0.03,0.23-0.19,0.23-0.41,0.24C49.32,54,49.53,53.94,49.82,53.93z
			 M46.31,54.87C46.5,54.58,46.48,55.1,46.31,54.87L46.31,54.87z M46.16,54.76c0.03,0.28-0.33,0.24-0.55,0.24
			C45.74,54.89,45.8,54.77,46.16,54.76z M44.62,55.26C44.89,55.08,44.43,55.49,44.62,55.26L44.62,55.26z M42.59,55.2
			c-0.03,0.34-0.39,0.35-0.75,0.36C41.81,55.28,42.33,55.38,42.59,55.2z M41.11,56.09c-0.01-0.11,0.14-0.06,0.14,0
			C41.26,56.2,41.18,56.09,41.11,56.09z M41.48,55.51c0.07,0,0.14,0,0.14,0c0.09,0.17-0.05,0.17-0.2,0.18
			C41.42,55.63,41.48,55.57,41.48,55.51z M41.46,56.02c0.06-0.12,0.2-0.18,0.48-0.18C41.89,55.96,41.68,56.02,41.46,56.02z
			 M42.35,56.23c-0.07,0-0.14,0-0.22,0.01c-0.01-0.06-0.01-0.11-0.02-0.17c0.14,0,0.16,0.11,0.3,0.11
			C42.42,56.23,42.35,56.23,42.35,56.23z M42.5,56.22c0,0-0.01-0.06-0.01-0.11c0.07,0,0.14,0,0.22-0.01
			c0.01,0.06,0.01,0.11,0.01,0.11C42.64,56.22,42.57,56.22,42.5,56.22z M42.67,55.82c-0.01-0.06-0.01-0.06-0.01-0.11
			c0.14-0.06,0.22-0.01,0.23,0.11C42.81,55.82,42.74,55.82,42.67,55.82z M43.54,55.86C43.58,55.63,43.64,56.14,43.54,55.86
			L43.54,55.86z M43.22,55.64c0.13-0.12,0.19-0.23,0.41-0.24C43.65,55.63,43.44,55.63,43.22,55.64z M43.88,55.05
			C44.07,54.82,44.19,55.27,43.88,55.05L43.88,55.05z M44,55.5c0,0-0.01-0.06-0.01-0.11c0.07,0,0.07,0,0.14,0
			c0.01,0.06,0.01,0.11,0.01,0.11C44.07,55.5,44.07,55.5,44,55.5z M44.21,55.44c-0.01-0.11,0.13-0.12,0.28-0.12
			C44.42,55.38,44.36,55.44,44.21,55.44z M44.6,55.66c-0.09-0.17,0.13-0.12,0.19-0.23C45.01,55.48,44.82,55.71,44.6,55.66z
			 M44.85,55.31c-0.01-0.06-0.01-0.11-0.02-0.17c0.07,0,0.07,0,0.14,0c0.01,0.06,0.01,0.11,0.02,0.17
			C44.92,55.31,44.92,55.31,44.85,55.31z M45.31,55.58c-0.1-0.28,0.33-0.24,0.38-0.46c0.25,0.28,0.81,0.15,0.93-0.08
			C46.74,55.49,45.8,55.4,45.31,55.58z M46.92,55.09c-0.03-0.23,0.54-0.3,0.71-0.08C47.26,54.91,47.28,55.08,46.92,55.09z
			 M47.3,54.62C47.31,54.73,47.16,54.68,47.3,54.62c0.12-0.23,0.62-0.24,0.91-0.25C48.03,54.72,47.72,54.55,47.3,54.62z
			 M46.69,54.35c0.4-0.29,1.19-0.37,1.61-0.44C47.99,54.38,47.19,54.34,46.69,54.35z M48.42,54.31
			C48.53,54.08,48.59,54.59,48.42,54.31L48.42,54.31z M49.1,54.57c-0.29-0.05-0.09-0.11-0.25-0.33c0.29,0.05,0.2-0.18,0.42-0.12
			c0.01,0.06-0.12,0.17-0.2,0.18c0.01,0.06,0.08,0.05,0.09,0.17c0.22-0.01,0.27-0.18,0.43-0.01C49.46,54.62,49.09,54.52,49.1,54.57z
			 M49.67,54.5c-0.02-0.17,0.19-0.23,0.41-0.24C50.01,54.38,49.95,54.49,49.67,54.5z M51.28,54.12c-0.15-0.05-0.23-0.11-0.17-0.22
			c-0.45,0.47-0.43,0.07-1.13,0.2c0.18-0.29,0.61-0.36,1.19-0.37c0.05,0.4,0.29,0.05,0.52,0.16C51.71,54.11,51.26,53.95,51.28,54.12
			z M51.83,53.88c-0.01-0.06,0.14-0.06,0.21-0.06C52.05,53.87,51.9,53.88,51.83,53.88z M51.97,53.19c0.01,0.11-0.13,0.12-0.28,0.06
			c0.03,0.23-0.42,0.12-0.77,0.19c0.05-0.23,0.62-0.24,0.77-0.19C51.68,53.2,51.83,53.2,51.97,53.19c-0.01-0.11,0.13-0.12,0.21-0.06
			C52.19,53.19,52.04,53.19,51.97,53.19z M52.47,53.75c-0.02-0.17,0.35-0.07,0.41-0.24C53.11,53.67,52.63,53.91,52.47,53.75z
			 M53.38,53.55c0,0-0.01-0.06-0.01-0.11c0.07,0,0.14,0,0.14,0c0.01,0.06,0.01,0.11,0.01,0.11S53.46,53.55,53.38,53.55z
			 M52.54,53.12c-0.04-0.34,0.54-0.3,1.05-0.31C53.4,53.04,52.89,53,52.54,53.12z M53.65,53.32c0.3,0.11,0.57-0.07,0.73,0.04
			C54.4,53.58,53.55,53.72,53.65,53.32z M54.49,53.13c0.21-0.06,0.5-0.07,0.65,0.04C55.1,53.39,54.52,53.41,54.49,53.13z
			 M55.24,53.33c-0.09-0.17,0.2-0.18,0.18-0.29c-0.14,0-0.08-0.11,0,0c0.07,0,0.14,0,0.14-0.06c0.14,0,0.23,0.11,0.25,0.28
			C55.49,53.04,55.45,53.33,55.24,53.33z M55.94,53.14c0.07-0.06,0.12-0.17,0.03-0.34c0.22-0.01,0.24,0.16,0.32,0.28
			C56.23,53.14,56.09,53.2,55.94,53.14z M56.69,52.78c-0.01-0.06,0.07,0,0.14-0.06C56.84,52.78,56.76,52.78,56.69,52.78z
			 M57.13,52.2c-0.02-0.17,0.12-0.17,0.33-0.24C57.48,52.14,57.35,52.2,57.13,52.2z M57.57,52.87c-0.3-0.11-0.04-0.34,0.03-0.34
			C57.97,52.58,57.7,52.76,57.57,52.87z M58.41,52.68c-0.08-0.05-0.22-0.05-0.37-0.05c-0.1-0.22,0.26-0.23,0.32-0.35
			c0.08,0.05,0.16,0.11,0.23,0.11C58.4,52.57,58.16,52.35,58.41,52.68z M57.62,52.08c0.11-0.34,0.84-0.25,1.18-0.43
			C58.55,52,57.82,51.9,57.62,52.08z M59.52,51.63c-0.01-0.06-0.01-0.06-0.01-0.11c0,0,0.07,0,0.14,0c0.01,0.06,0.01,0.06,0.01,0.11
			C59.59,51.63,59.52,51.63,59.52,51.63z M60.84,51.77c0.07,0,0.22,0.05,0.3,0.11C61.16,52.04,60.71,51.94,60.84,51.77z
			 M59.95,51.56c0.03-0.34,0.58,0.04,0.61-0.36c0.29,0.05,0.66,0.1,0.78-0.13c0.14,0,0.1,0.22,0.31,0.16
			C61.08,51.36,60.65,51.43,59.95,51.56z M64.88,50.52C64.88,50.47,65.03,50.52,64.88,50.52C64.92,50.81,64.52,50.53,64.88,50.52z
			 M61.98,51.62c0,0-0.01-0.06-0.01-0.11c0.22-0.01,0.29-0.01,0.3,0.11C62.19,51.62,62.12,51.62,61.98,51.62z M62.28,51.79
			c-0.01-0.11,0.14-0.06,0.14,0C62.44,51.89,62.35,51.78,62.28,51.79z M62.33,51.56C62.45,51.33,62.51,51.84,62.33,51.56
			L62.33,51.56z M62.71,51.72c-0.01-0.11,0.06-0.12,0.12-0.17c-0.01-0.06-0.08-0.05-0.09-0.17c0.13-0.12,0.51,0.04,0.53,0.21
			C62.98,51.54,62.94,51.88,62.71,51.72z M63.53,51.35c-0.01-0.11,0.14-0.06,0.28-0.12C63.75,51.35,63.6,51.3,63.53,51.35z
			 M62.07,51.17c0.55-0.24,1.87-0.67,2.31-0.63C63.93,51,62.62,50.98,62.07,51.17z M64.83,51.32c-0.23-0.11-0.31-0.22-0.59-0.1
			c-0.1-0.28,0.87,0.03,0.84-0.25C65.45,51.02,64.89,51.21,64.83,51.32z M66.38,50.37c-0.52-0.1-0.49,0.13-1.07,0.08
			C65.58,50.33,66.12,49.98,66.38,50.37z M65.39,51.14c-0.02-0.17,0.05-0.23,0.11-0.34c0.07,0,0.22-0.01,0.29-0.01
			C65.81,51.01,65.6,51.07,65.39,51.14z M66.16,50.94c-0.11-0.34,0.48-0.18,0.69-0.3C66.72,50.82,66.51,50.88,66.16,50.94z
			 M66.8,50.25c-0.01-0.11,0.13-0.12,0.14,0C66.95,50.3,66.87,50.24,66.8,50.25z M76.2,48.47c-0.39,0.35-1.36,0.15-2.12,0.45
			C74.24,48.35,75.49,48.54,76.2,48.47z M73.96,49.04c-0.15-0.05-0.22,0.01-0.21,0.06c-0.22,0.01-0.16-0.17-0.18-0.34
			C73.78,48.76,73.93,48.81,73.96,49.04z M73.3,48.94c0.09,0.17-0.54,0.3-0.5,0.01C73.01,48.95,73.14,48.83,73.3,48.94z
			 M67.02,50.24c0.96-0.48,1.89-0.5,2.88-0.7C69.36,49.89,68,49.99,67.02,50.24z M69.11,50.24C69.37,49.95,69.43,50.46,69.11,50.24
			L69.11,50.24z M69.52,50c0.16,0.11,0.43-0.01,0.39,0.27C69.63,50.34,69.54,50.23,69.52,50z M70.05,50.22
			c0.14,0,0.29-0.01,0.36-0.01C70.51,50.49,70.07,50.44,70.05,50.22z M70.75,50.03c-0.01-0.06,0.14-0.06,0.12-0.17
			C71.09,49.85,70.91,50.14,70.75,50.03z M70.2,49.65c-0.03-0.28,0.84-0.19,1.32-0.43C71.28,49.62,70.55,49.52,70.2,49.65z
			 M71.11,50.02c-0.01-0.06,0.14-0.06,0.14,0C71.27,50.13,71.18,50.02,71.11,50.02z M71.23,49.85c0.12-0.17,0.2-0.12,0.43-0.07
			C71.59,49.84,71.38,49.9,71.23,49.85z M71.93,49.66C72.12,49.42,72.03,49.88,71.93,49.66L71.93,49.66z M72.16,49.76
			c-0.01-0.06-0.01-0.11-0.02-0.17c0.07,0,0.14,0,0.22-0.01c0.01,0.06,0.01,0.11,0.02,0.17C72.31,49.76,72.24,49.76,72.16,49.76z
			 M72.1,49.2c0.09,0.17-0.28,0.06-0.43,0.07C71.73,49.09,71.95,49.2,72.1,49.2c0.12-0.23,0.29-0.01,0.56-0.13
			C72.69,49.35,72.32,49.25,72.1,49.2z M72.46,49.87c-0.1-0.22,0.2-0.12,0.11-0.34c0.21-0.06,0.16,0.11,0.3,0.11
			C72.74,49.75,72.68,49.87,72.46,49.87z M73.75,49.72c-0.25-0.28-0.52-0.16-0.81-0.15c0.19-0.23,1.61-0.44,1.72-0.16
			C74.28,49.37,73.85,49.38,73.75,49.72z M74.7,49.24c0.05-0.17,0.42-0.12,0.7-0.19C75.36,49.28,74.99,49.24,74.7,49.24z
			 M76.12,48.98c0.29-0.01-0.19,0.23,0.1,0.22C75.95,49.44,75.84,49.04,76.12,48.98z M76.35,48.46c-0.01-0.11,0.36-0.01,0.43-0.07
			C76.79,48.56,76.5,48.57,76.35,48.46z M76.86,49.13c-0.15-0.05-0.24-0.22-0.11-0.34C77.04,48.84,76.84,48.96,76.86,49.13z
			 M77.1,48.73c0.14,0,0.16,0.11,0.37,0.05C77.48,48.89,76.98,48.9,77.1,48.73z M77.89,48.71C78.08,48.42,77.99,48.93,77.89,48.71
			L77.89,48.71z M77.13,48.33c0.41-0.24,0.97-0.37,1.34-0.32C78.21,48.3,77.58,48.49,77.13,48.33z M79.38,48.44
			C79.81,48.43,78.74,48.51,79.38,48.44L79.38,48.44z M78.84,48.11c-0.03-0.23,0.75-0.36,0.71-0.08
			C79.18,47.99,79.13,48.16,78.84,48.11z M79.67,48.43c-0.01-0.11,0.13-0.12,0.35-0.12c0.01,0.06,0.01,0.11,0.03,0.23
			C79.96,48.48,79.81,48.43,79.67,48.43z M80.23,48.3C80.5,48.13,80.04,48.54,80.23,48.3L80.23,48.3z M80.79,48.18
			c0.16,0.11,0.22-0.01,0.43-0.01C81.24,48.33,80.68,48.46,80.79,48.18z M81.44,48.16C81.45,48.22,81.3,48.16,81.44,48.16
			C81.41,47.93,81.81,48.21,81.44,48.16z M82.57,48.53c-0.01-0.06,0.05-0.17,0.04-0.29c0.14,0,0.15,0.05,0.22,0.05
			C82.92,48.46,82.78,48.52,82.57,48.53z M81.94,48.15c0.09-0.46,0.7-0.19,1.12-0.31C82.97,48.23,82.29,47.97,81.94,48.15z
			 M83.07,48.51c-0.09-0.17,0.05-0.17,0.04-0.29C83.33,48.22,83.36,48.56,83.07,48.51z M80.04,47.91c0.06-0.12,0.41-0.24-0.03-0.23
			c1.13-0.2,2.16-0.06,3.27-0.48c0.14,0,0.22,0.05,0.24,0.22C82.4,47.68,81.18,47.77,80.04,47.91z M83.61,48.22
			C83.98,48.26,83.59,48.61,83.61,48.22L83.61,48.22z M83.75,47.47c-0.09-0.17,0.05-0.23,0.26-0.23
			C84.1,47.41,83.88,47.41,83.75,47.47z M84.22,47.18c-0.01-0.06,0.07-0.06,0.14-0.06C84.36,47.17,84.29,47.17,84.22,47.18z
			 M85.1,47.95C85.11,48.06,84.96,48.01,85.1,47.95c-0.03-0.23-0.24-0.16-0.33-0.33c0.21-0.06,0.43-0.07,0.57-0.07
			C85.22,47.78,85.61,47.99,85.1,47.95z M85.94,47.7c-0.08-0.05-0.16-0.11-0.3-0.11c-0.01-0.06,0.14-0.06,0.12-0.17
			C86.06,47.47,85.92,47.53,85.94,47.7z M88.19,46.5c0.15,0.05,0.09,0.17,0.1,0.28c-0.14,0.06-0.22-0.05-0.29-0.05
			C87.98,46.62,88.2,46.67,88.19,46.5z M87.31,46.47c0.01,0.06-0.07,0.06-0.14,0.06C87.17,46.47,87.25,46.53,87.31,46.47z M86.72,47
			c-0.07,0.06-0.14,0-0.22,0.01C86.5,46.89,86.71,46.88,86.72,47z M86.78,47.45l-0.29-0.05C86.47,47.29,86.9,47.28,86.78,47.45z
			 M86.8,47c-0.01-0.06,0.07-0.06,0.13-0.12C86.94,46.99,86.86,46.94,86.8,47z M86.92,47.45c0.03-0.34,0.56-0.13,0.77-0.25
			C87.66,47.6,87.26,47.27,86.92,47.45z M87.35,46.75c0.22-0.01,0.22,0.05,0.37,0.05C87.73,46.91,87.22,46.93,87.35,46.75z
			 M88.64,47.35c-0.18-0.28-0.37-0.1-0.81-0.15c0.1-0.4,0.79-0.02,1.04-0.37C89.26,47.04,88.77,47.17,88.64,47.35z M89.17,46.93
			c0.14-0.06,0.51,0.04,0.56-0.13C90.05,47.02,89.21,47.27,89.17,46.93z M89.93,46.57c-0.01-0.11-0.03-0.23-0.1-0.22
			c-0.01-0.11,0.28-0.06,0.26-0.23c0.01,0.06,0.08,0.11,0.23,0.11C89.83,46.4,90.63,46.44,89.93,46.57z M90.56,46.39
			c0.06-0.12,0.27-0.18,0.43-0.07C91,46.49,90.63,46.38,90.56,46.39z M90.89,46.77c0.07,0,0.14-0.06,0.13-0.12c0,0,0.07,0,0.14,0
			C91.18,46.82,91.03,46.77,90.89,46.77z M140.52,43.78C140.59,43.77,140.44,43.72,140.52,43.78L140.52,43.78z M144.1,44.14
			C144.17,44.14,144.02,44.08,144.1,44.14L144.1,44.14z M143.89,44.2C143.97,44.25,143.89,44.14,143.89,44.2L143.89,44.2z
			 M126.53,43.91C126.77,44.13,126.65,43.68,126.53,43.91L126.53,43.91z M128.98,43.85c0,0,0.01,0.06,0.01,0.11
			c0.07,0,0.14,0,0.14,0c-0.01-0.06-0.01-0.06,0.14-0.06c-0.01-0.06-0.01-0.11-0.02-0.17c-0.07,0-0.14,0-0.22,0.01
			C129.04,43.79,129.05,43.85,128.98,43.85z M140.52,43.78C140.38,43.84,140.54,43.89,140.52,43.78L140.52,43.78z M136.25,43.72
			c-0.14,0-0.16-0.11-0.29-0.05C135.84,43.84,136.27,43.83,136.25,43.72z M127.18,43.95C127.1,43.9,127.26,44.01,127.18,43.95
			L127.18,43.95z M158.19,44.85C158.36,45.07,158.38,44.56,158.19,44.85L158.19,44.85z M125.9,44.1c0.22-0.01,0.43-0.07,0.48-0.18
			c-0.07,0-0.15-0.05-0.08-0.11c-0.07,0-0.14,0-0.22-0.05c0.01,0.11-0.05,0.17-0.2,0.18c-0.02-0.17-0.04-0.34-0.25-0.33
			c0.08,0.11,0.25,0.28,0.05,0.4C125.81,43.99,125.89,43.99,125.9,44.1z M169.73,44.66C169.66,44.67,169.81,44.72,169.73,44.66
			L169.73,44.66z M25.36,82.38H1.89v54.63h13.64v-13.97h9.83C50.88,123.04,50.88,82.46,25.36,82.38z M25.28,110.48h-9.75V94.87
			c3.12,0,6.55-0.08,9.75,0C33.2,94.94,32.75,110.48,25.28,110.48z M66.97,82.38H53.26v54.63h33.06v-12.57H66.97
			C66.97,101.19,66.97,110.63,66.97,82.38z M115.15,81.68l-24,53.31v2.03h13.33l3.12-6.87h21.03l3.12,6.87h13.33v-2.03l-24.07-53.31
			H115.15z M112.1,118.12l5.94-14.36l6.09,14.36H112.1z M165.52,100.56h-0.53l-9.68-18.19h-14.7v2.11l17.9,29.58v22.95H172v-22.95
			l17.98-29.58v-2.11H175.2L165.52,100.56z M221.53,105.87v12.1h11.35c-2.44,5.23-5.94,6.71-11.43,6.71
			c-8.08,0-13.26-5.93-13.26-14.99c0-8.35,4.65-15.22,13.26-15.22c5.41,0,8.91,1.87,11.12,6.56h13.41
			c-2.59-13.58-13.79-19.28-24.53-19.36c-13.56,0-27.27,9.37-27.35,28.02c0.08,18.65,13.79,27.94,27.35,27.94
			c9.83,0,19.96-4.37,23.77-15.77c1.83-5.31,1.83-10.54,1.52-16H221.53z M280.84,82.38h-23.39v54.63h13.64v-16.08h7.09l9.14,16.08
			h15.24v-2.03l-10.44-17.33C305.6,108.29,301.79,82.46,280.84,82.38z M280.84,108.37h-9.75v-13.5c3.2,0,6.55-0.08,9.75,0
			C288.61,94.94,288.23,108.37,280.84,108.37z M307.31,109.77c0,37.85,54.7,37.85,54.7,0C362.01,72,307.31,72,307.31,109.77z
			 M321.33,109.77c0-19.67,26.74-19.67,26.74,0C348.07,129.6,321.33,129.6,321.33,109.77z M400.83,118.59
			c0,4.45-4.11,6.63-8.08,6.63s-8.15-2.19-8.15-6.63V82.38h-13.03v36.45c0,12.02,10.28,18.97,21.18,18.97
			c10.97,0,21.26-6.95,21.26-18.97V82.38h-13.18V118.59z M458.84,109.15l-26.97-27.01h-4.95v54.87h14.09v-26.85l26.89,26.93h4.88
			V82.38h-13.94V109.15z M506.2,82.38h-20.11v54.63h20.11C540.94,136.86,540.94,82.53,506.2,82.38z M506.2,124.29h-6.48V95.1h6.48
			C523.19,95.1,523.19,124.29,506.2,124.29z"/>
	</g>
</g>
</svg>
