<?xml version="1.0" encoding="utf-8"?>
<!-- Generator: Adobe Illustrator 20.0.0, SVG Export Plug-In . SVG Version: 6.00 Build 0)  -->
<svg version="1.1" id="レイヤー_1" xmlns="http://www.w3.org/2000/svg" xmlns:xlink="http://www.w3.org/1999/xlink" x="0px"
	 y="0px" viewBox="0 0 439.79 34.98" style="enable-background:new 0 0 439.79 34.98;" xml:space="preserve">
<g>
	<g>
		<path d="M22.59,12.38l5.02-7.49l-0.07-1.49l-1.63-0.15l-4.82,7.22c-1.7,2.92-3.68,4.44-5.96,4.54c-0.83,0.04-1.66-0.12-2.5-0.46
			c-0.6-1.27-0.92-2.48-0.98-3.66c-0.1-2.17,0.69-4.36,2.36-6.58l-0.29-1.66l-1.21-0.17L11.73,4.1L9.61,4.5l0.04,5.72
			C4.71,16.53,1.49,23.44,0,30.96l0.56,1.12l0.95,0.18c1.63-6.39,4.41-12.25,8.34-17.59l3.41,2.49l3.15-0.45l2.63-1.61
			c-2.07,3.44-3.35,7.2-3.82,11.27l0.82,2.17l2.16,0.34l0.57-1.61l-1.6-1.21C17.63,21.07,19.44,16.51,22.59,12.38z M43.08,26.18
			l-7.1,2.21l-2.2-0.43l3.27-5.43l0.01-1.67l-1.08-1.14l-0.47-1.96l-2.23-1.09c-4.52,2.43-8.15,5.99-10.92,10.66l-0.41,2.44
			l1.31,1.53l1.75-0.08l5.98-4.27l0.68-0.03l0.09,2.11l0.77,0.89l3.32,0.6l6.46-2.93L43.08,26.18z M28.92,26.5l-4.44,2.18
			l-0.24-0.52l5.97-7.23l2.78-2.02l1.14,0.57l0.32,2.41L28.92,26.5z M57.16,18.24c0.48-0.02,0.95-0.06,1.39-0.11
			c0.44-0.05,0.9-0.11,1.38-0.19l0.18-0.76l-8.06-1.14l-4.1,0.18l-2.82,1.18l-0.41,2.35l1.04,0.26l2.27-1.91l1.11-0.05l0.47,0.86
			l-7.3,9.18l-0.14,1.72l1.65,0.54l1.05-2.38c3.13-2.9,5.64-6.26,7.56-10.07C53.99,18.2,55.56,18.31,57.16,18.24z M65.16,11.45
			l0.81-1.09L64,8.33l-1.12-0.17l-0.45,1.52l1.1,1.54L65.16,11.45z M56.48,24.08l-1.41,4.82l1.5,0.9l1.64-4.61l2.92-3.74l0.32-1.38
			l-1.35-0.47L56.48,24.08z M75.78,19.43l-1.56-0.46c-2.4,3.07-5.49,4.69-9.25,4.86l-0.28-1.48l2.61-3.9l-0.05-1.05l-0.96-0.4
			c-2.81,1.68-4.16,4.31-4.06,7.89l0.98,0.93l2.06,0.13l5.66-1.75l-0.33,4.15l1.88,0.84l0.53-4.34l2.8-4.35L75.78,19.43z
			 M92.81,21.93l-5.91,2.91l2.36-4.64l-0.4-2.18l-2.05,0.18l-5.66,4.61l1.89-3.7L83,18.05l-1.34-0.38l-5.98,8.94l-0.14,1.72
			l1.48,0.55l8.7-7.57l0.33,0.73l-2.61,3.99l0.74,2.08l1.84-0.08c2-1.88,4.37-3.17,7.11-3.88l0.65,3.01l1.49,0.68l0.42-4.11
			l-0.97-1.67L92.81,21.93z M126.95,0.58h-14.41v33.69h8.38v-8.62h6.04C142.63,25.65,142.63,0.63,126.95,0.58z M126.91,17.91h-5.99
			V8.28c1.92,0,4.02-0.05,5.99,0C131.77,8.33,131.49,17.91,126.91,17.91z M152.67,0.58h-8.42v33.69h20.31v-7.75h-11.89
			C152.67,12.18,152.67,18,152.67,0.58z M182.4,0.14l-14.74,32.87v1.25h8.19l1.92-4.24h12.92l1.92,4.24h8.19v-1.25L186,0.14H182.4z
			 M180.53,22.62l3.65-8.86l3.74,8.86H180.53z M213.53,11.79h-0.33l-5.94-11.21h-9.03v1.3l11,18.24v14.15h8.28V20.12l11.04-18.24
			v-1.3h-9.08L213.53,11.79z M248.11,15.07v7.46h6.97c-1.5,3.22-3.65,4.14-7.02,4.14c-4.96,0-8.14-3.66-8.14-9.24
			c0-5.15,2.85-9.39,8.14-9.39c3.32,0,5.48,1.16,6.83,4.04h8.24c-1.59-8.37-8.47-11.89-15.07-11.94c-8.33,0-16.75,5.78-16.8,17.28
			c0.05,11.5,8.47,17.23,16.8,17.23c6.04,0,12.26-2.7,14.6-9.72c1.12-3.27,1.12-6.5,0.94-9.87H248.11z M284.69,0.58h-14.37v33.69
			h8.38v-9.92h4.35l5.62,9.92h9.36v-1.25l-6.41-10.69C299.9,16.56,297.56,0.63,284.69,0.58z M284.69,16.61h-5.99V8.28
			c1.97,0,4.02-0.05,5.99,0C289.46,8.33,289.23,16.61,284.69,16.61z M301.11,17.47c0,23.34,33.6,23.34,33.6,0
			C334.71-5.82,301.11-5.82,301.11,17.47z M309.72,17.47c0-12.13,16.43-12.13,16.43,0C326.14,29.7,309.72,29.7,309.72,17.47z
			 M358.73,22.91c0,2.74-2.53,4.09-4.96,4.09c-2.43,0-5.01-1.35-5.01-4.09V0.58h-8v22.48c0,7.41,6.32,11.7,13.01,11.7
			c6.74,0,13.06-4.28,13.06-11.7V0.58h-8.1V22.91z M394.54,17.09L377.97,0.43h-3.04v33.84h8.66V17.71l16.52,16.61h2.99V0.58h-8.56
			V17.09z M423.78,0.58h-12.35v33.69h12.35C445.12,34.17,445.12,0.67,423.78,0.58z M423.78,26.42h-3.98v-18h3.98
			C434.22,8.42,434.22,26.42,423.78,26.42z"/>
	</g>
</g>
</svg>
